<?xml version="1.0" encoding="UTF-8"?>
<!DOCTYPE svg PUBLIC "-//W3C//DTD SVG 1.1//EN" "http://www.w3.org/Graphics/SVG/1.1/DTD/svg11.dtd">
<!-- Creator: CorelDRAW X7 -->
<svg xmlns="http://www.w3.org/2000/svg" xml:space="preserve" width="8.5in" height="11in" version="1.1" style="shape-rendering:geometricPrecision; text-rendering:geometricPrecision; image-rendering:optimizeQuality; fill-rule:evenodd; clip-rule:evenodd"
viewBox="0 0 8500 11000"
 xmlns:xlink="http://www.w3.org/1999/xlink">
 <defs>
  <style type="text/css">
   <![CDATA[
    .str0 {stroke:#202D34;stroke-width:13.8898;stroke-linejoin:round}
    .str1 {stroke:#202D34;stroke-width:13.8898;stroke-linecap:round;stroke-linejoin:round}
    .fil5 {fill:none;fill-rule:nonzero}
    .fil6 {fill:none;fill-rule:nonzero}
    .fil3 {fill:#202D34;fill-rule:nonzero}
    .fil4 {fill:#4C575C;fill-rule:nonzero}
    .fil0 {fill:#AAFF00;fill-rule:nonzero}
    .fil2 {fill:white;fill-rule:nonzero}
    .fil8 {fill:white;fill-rule:nonzero;fill-opacity:0.200000}
    .fil7 {fill:white;fill-rule:nonzero;fill-opacity:0.501961}
    .fil1 {fill:white;fill-rule:nonzero;fill-opacity:0.701961}
   ]]>
  </style>
 </defs>
 <g id="Layer_x0020_1">
  <metadata id="CorelCorpID_0Corel-Layer"/>
  <g id="_1700256408064">
   <g>
    <path class="fil0" d="M6736 5414c47,-178 203,-777 308,-1384 126,-724 236,-1722 -267,-2140 -504,-418 -1165,81 -1511,-80 -346,-161 -362,-966 -1291,-1207 -928,-242 -1447,595 -1857,1046 -409,450 -865,145 -1463,627 -592,478 -90,2640 347,3138l5734 0z"/>
    <path class="fil1" d="M6736 5414c47,-178 203,-777 308,-1384 126,-724 236,-1722 -267,-2140 -504,-418 -1165,81 -1511,-80 -346,-161 -362,-966 -1291,-1207 -928,-242 -1447,595 -1857,1046 -409,450 -865,145 -1463,627 -592,478 -90,2640 347,3138l5734 0z"/>
   </g>
   <g>
    <g>
     <path class="fil2" d="M4980 2248l-58 0c-8,0 -14,-7 -14,-15 0,-8 6,-14 14,-14l58 0c8,0 14,6 14,14 0,8 -6,15 -14,15zm14 51l0 0c0,-7 -6,-14 -14,-14l-58 0c-8,0 -14,7 -14,14 0,8 6,15 14,15l58 0c8,0 14,-7 14,-15zm0 66l0 0c0,-7 -6,-14 -14,-14l-58 0c-8,0 -14,7 -14,14 0,8 6,15 14,15l58 0c8,0 14,-7 14,-15zm0 67l0 0c0,-8 -6,-15 -14,-15l-58 0c-8,0 -14,7 -14,15 0,7 6,14 14,14l58 0c8,0 14,-7 14,-14zm0 66l0 0c0,-8 -6,-15 -14,-15l-58 0c-8,0 -14,7 -14,15 0,7 6,14 14,14l58 0c8,0 14,-7 14,-14zm0 66l0 0c0,-8 -6,-15 -14,-15l-58 0c-8,0 -14,7 -14,15 0,8 6,14 14,14l58 0c8,0 14,-6 14,-14zm0 66l0 0c0,-8 -6,-15 -14,-15l-58 0c-8,0 -14,7 -14,15 0,8 6,14 14,14l58 0c8,0 14,-6 14,-14zm0 66l0 0c0,-8 -6,-14 -14,-14l-58 0c-8,0 -14,6 -14,14 0,8 6,14 14,14l58 0c8,0 14,-6 14,-14zm216 -463l0 0c0,-8 -6,-14 -14,-14l-152 0c-8,0 -14,6 -14,14 0,8 6,15 14,15l152 0c8,0 14,-7 14,-15zm0 66l0 0c0,-7 -6,-14 -14,-14l-152 0c-8,0 -14,7 -14,14 0,8 6,15 14,15l152 0c8,0 14,-7 14,-15zm0 66l0 0c0,-7 -6,-14 -14,-14l-152 0c-8,0 -14,7 -14,14 0,8 6,15 14,15l152 0c8,0 14,-7 14,-15zm0 67l0 0c0,-8 -6,-15 -14,-15l-152 0c-8,0 -14,7 -14,15 0,7 6,14 14,14l152 0c8,0 14,-7 14,-14zm0 66l0 0c0,-8 -6,-15 -14,-15l-152 0c-8,0 -14,7 -14,15 0,7 6,14 14,14l152 0c8,0 14,-7 14,-14zm182 66l0 0c0,-8 -7,-15 -14,-15l-152 0c-8,0 -14,7 -14,15 0,8 6,14 14,14l152 0c7,0 14,-6 14,-14zm0 66l0 0c0,-8 -7,-15 -14,-15l-152 0c-8,0 -14,7 -14,15 0,8 6,14 14,14l152 0c7,0 14,-6 14,-14zm0 66l0 0c0,-8 -7,-14 -14,-14l-152 0c-8,0 -14,6 -14,14 0,8 6,14 14,14l152 0c7,0 14,-6 14,-14zm-115 -463l0 0c0,-9 -7,-16 -17,-16 -9,0 -16,7 -16,16 0,9 7,17 16,17 10,0 17,-8 17,-17zm49 0l0 0c0,-9 -7,-16 -16,-16 -9,0 -17,7 -17,16 0,9 8,17 17,17 9,0 16,-8 16,-17zm50 0l0 0c0,-9 -7,-16 -16,-16 -10,0 -17,7 -17,16 0,9 7,17 17,17 9,0 16,-8 16,-17zm50 0l0 0c0,-9 -8,-16 -17,-16 -9,0 -16,7 -16,16 0,9 7,17 16,17 9,0 17,-8 17,-17zm49 0l0 0c0,-9 -7,-16 -16,-16 -10,0 -17,7 -17,16 0,9 7,17 17,17 9,0 16,-8 16,-17zm50 0l0 0c0,-9 -8,-16 -17,-16 -9,0 -16,7 -16,16 0,9 7,17 16,17 9,0 17,-8 17,-17zm-248 132l0 0c0,-9 -7,-16 -17,-16 -9,0 -16,7 -16,16 0,10 7,17 16,17 10,0 17,-7 17,-17zm49 0l0 0c0,-9 -7,-16 -16,-16 -9,0 -17,7 -17,16 0,10 8,17 17,17 9,0 16,-7 16,-17zm50 0l0 0c0,-9 -7,-16 -16,-16 -10,0 -17,7 -17,16 0,10 7,17 17,17 9,0 16,-7 16,-17zm50 0l0 0c0,-9 -8,-16 -17,-16 -9,0 -16,7 -16,16 0,10 7,17 16,17 9,0 17,-7 17,-17zm49 0l0 0c0,-9 -7,-16 -16,-16 -10,0 -17,7 -17,16 0,10 7,17 17,17 9,0 16,-7 16,-17zm50 0l0 0c0,-9 -8,-16 -17,-16 -9,0 -16,7 -16,16 0,10 7,17 16,17 9,0 17,-7 17,-17zm-79 190l0 0c0,-9 -7,-16 -16,-16 -9,0 -17,7 -17,16 0,10 8,17 17,17 9,0 16,-7 16,-17zm50 0l0 0c0,-9 -8,-16 -17,-16 -9,0 -16,7 -16,16 0,10 7,17 16,17 9,0 17,-7 17,-17zm49 0l0 0c0,-9 -7,-16 -16,-16 -9,0 -17,7 -17,16 0,10 8,17 17,17 9,0 16,-7 16,-17zm50 0l0 0c0,-9 -8,-16 -17,-16 -9,0 -16,7 -16,16 0,10 7,17 16,17 9,0 17,-7 17,-17zm49 0l0 0c0,-9 -7,-16 -16,-16 -9,0 -17,7 -17,16 0,10 8,17 17,17 9,0 16,-7 16,-17zm50 0l0 0c0,-9 -7,-16 -17,-16 -9,0 -16,7 -16,16 0,10 7,17 16,17 10,0 17,-7 17,-17zm-248 137l0 0c0,-9 -7,-17 -16,-17 -9,0 -17,8 -17,17 0,9 8,16 17,16 9,0 16,-7 16,-16zm50 0l0 0c0,-9 -8,-17 -17,-17 -9,0 -16,8 -16,17 0,9 7,16 16,16 9,0 17,-7 17,-16zm49 0l0 0c0,-9 -7,-17 -16,-17 -9,0 -17,8 -17,17 0,9 8,16 17,16 9,0 16,-7 16,-16zm50 0l0 0c0,-9 -8,-17 -17,-17 -9,0 -16,8 -16,17 0,9 7,16 16,16 9,0 17,-7 17,-16zm49 0l0 0c0,-9 -7,-17 -16,-17 -9,0 -17,8 -17,17 0,9 8,16 17,16 9,0 16,-7 16,-16zm50 0l0 0c0,-9 -7,-17 -17,-17 -9,0 -16,8 -16,17 0,9 7,16 16,16 10,0 17,-7 17,-16z"/>
     <path class="fil2" d="M4980 2776l-58 0c-8,0 -14,-6 -14,-14 0,-8 6,-14 14,-14l58 0c8,0 14,6 14,14 0,8 -6,14 -14,14zm14 52l0 0c0,-8 -6,-14 -14,-14l-58 0c-8,0 -14,6 -14,14 0,8 6,14 14,14l58 0c8,0 14,-6 14,-14zm0 66l0 0c0,-8 -6,-14 -14,-14l-58 0c-8,0 -14,6 -14,14 0,8 6,14 14,14l58 0c8,0 14,-6 14,-14zm0 66l0 0c0,-8 -6,-14 -14,-14l-58 0c-8,0 -14,6 -14,14 0,8 6,14 14,14l58 0c8,0 14,-6 14,-14zm0 66l0 0c0,-8 -6,-14 -14,-14l-58 0c-8,0 -14,6 -14,14 0,8 6,14 14,14l58 0c8,0 14,-6 14,-14zm0 66l0 0c0,-8 -6,-14 -14,-14l-58 0c-8,0 -14,6 -14,14 0,8 6,15 14,15l58 0c8,0 14,-7 14,-15zm0 66l0 0c0,-8 -6,-14 -14,-14l-58 0c-8,0 -14,6 -14,14 0,8 6,15 14,15l58 0c8,0 14,-7 14,-15zm0 66l0 0c0,-8 -6,-14 -14,-14l-58 0c-8,0 -14,6 -14,14 0,8 6,15 14,15l58 0c8,0 14,-7 14,-15zm216 -462l0 0c0,-8 -6,-14 -14,-14l-152 0c-8,0 -14,6 -14,14 0,8 6,14 14,14l152 0c8,0 14,-6 14,-14zm0 66l0 0c0,-8 -6,-14 -14,-14l-152 0c-8,0 -14,6 -14,14 0,8 6,14 14,14l152 0c8,0 14,-6 14,-14zm0 66l0 0c0,-8 -6,-14 -14,-14l-152 0c-8,0 -14,6 -14,14 0,8 6,14 14,14l152 0c8,0 14,-6 14,-14zm0 66l0 0c0,-8 -6,-14 -14,-14l-152 0c-8,0 -14,6 -14,14 0,8 6,14 14,14l152 0c8,0 14,-6 14,-14zm0 66l0 0c0,-8 -6,-14 -14,-14l-152 0c-8,0 -14,6 -14,14 0,8 6,14 14,14l152 0c8,0 14,-6 14,-14zm182 66l0 0c0,-8 -7,-14 -14,-14l-152 0c-8,0 -14,6 -14,14 0,8 6,15 14,15l152 0c7,0 14,-7 14,-15zm0 66l0 0c0,-8 -7,-14 -14,-14l-152 0c-8,0 -14,6 -14,14 0,8 6,15 14,15l152 0c7,0 14,-7 14,-15zm0 66l0 0c0,-8 -7,-14 -14,-14l-152 0c-8,0 -14,6 -14,14 0,8 6,15 14,15l152 0c7,0 14,-7 14,-15zm-115 -462l0 0c0,-9 -7,-17 -17,-17 -9,0 -16,8 -16,17 0,9 7,16 16,16 10,0 17,-7 17,-16zm49 0l0 0c0,-9 -7,-17 -16,-17 -9,0 -17,8 -17,17 0,9 8,16 17,16 9,0 16,-7 16,-16zm50 0l0 0c0,-9 -7,-17 -16,-17 -10,0 -17,8 -17,17 0,9 7,16 17,16 9,0 16,-7 16,-16zm50 0l0 0c0,-9 -8,-17 -17,-17 -9,0 -16,8 -16,17 0,9 7,16 16,16 9,0 17,-7 17,-16zm49 0l0 0c0,-9 -7,-17 -16,-17 -10,0 -17,8 -17,17 0,9 7,16 17,16 9,0 16,-7 16,-16zm50 0l0 0c0,-9 -8,-17 -17,-17 -9,0 -16,8 -16,17 0,9 7,16 16,16 9,0 17,-7 17,-16zm-248 132l0 0c0,-9 -7,-16 -17,-16 -9,0 -16,7 -16,16 0,9 7,17 16,17 10,0 17,-8 17,-17zm49 0l0 0c0,-9 -7,-16 -16,-16 -9,0 -17,7 -17,16 0,9 8,17 17,17 9,0 16,-8 16,-17zm50 0l0 0c0,-9 -7,-16 -16,-16 -10,0 -17,7 -17,16 0,9 7,17 17,17 9,0 16,-8 16,-17zm50 0l0 0c0,-9 -8,-16 -17,-16 -9,0 -16,7 -16,16 0,9 7,17 16,17 9,0 17,-8 17,-17zm49 0l0 0c0,-9 -7,-16 -16,-16 -10,0 -17,7 -17,16 0,9 7,17 17,17 9,0 16,-8 16,-17zm50 0l0 0c0,-9 -8,-16 -17,-16 -9,0 -16,7 -16,16 0,9 7,17 16,17 9,0 17,-8 17,-17zm-79 190l0 0c0,-9 -7,-17 -16,-17 -9,0 -17,8 -17,17 0,9 8,16 17,16 9,0 16,-7 16,-16zm50 0l0 0c0,-9 -8,-17 -17,-17 -9,0 -16,8 -16,17 0,9 7,16 16,16 9,0 17,-7 17,-16zm49 0l0 0c0,-9 -7,-17 -16,-17 -9,0 -17,8 -17,17 0,9 8,16 17,16 9,0 16,-7 16,-16zm50 0l0 0c0,-9 -8,-17 -17,-17 -9,0 -16,8 -16,17 0,9 7,16 16,16 9,0 17,-7 17,-16zm49 0l0 0c0,-9 -7,-17 -16,-17 -9,0 -17,8 -17,17 0,9 8,16 17,16 9,0 16,-7 16,-16zm50 0l0 0c0,-9 -7,-17 -17,-17 -9,0 -16,8 -16,17 0,9 7,16 16,16 10,0 17,-7 17,-16zm-248 136l0 0c0,-9 -7,-16 -16,-16 -9,0 -17,7 -17,16 0,9 8,17 17,17 9,0 16,-8 16,-17zm50 0l0 0c0,-9 -8,-16 -17,-16 -9,0 -16,7 -16,16 0,9 7,17 16,17 9,0 17,-8 17,-17zm49 0l0 0c0,-9 -7,-16 -16,-16 -9,0 -17,7 -17,16 0,9 8,17 17,17 9,0 16,-8 16,-17zm50 0l0 0c0,-9 -8,-16 -17,-16 -9,0 -16,7 -16,16 0,9 7,17 16,17 9,0 17,-8 17,-17zm49 0l0 0c0,-9 -7,-16 -16,-16 -9,0 -17,7 -17,16 0,9 8,17 17,17 9,0 16,-8 16,-17zm50 0l0 0c0,-9 -7,-16 -17,-16 -9,0 -16,7 -16,16 0,9 7,17 16,17 10,0 17,-8 17,-17z"/>
     <path class="fil2" d="M4980 3318l-58 0c-8,0 -14,-7 -14,-15 0,-8 6,-14 14,-14l58 0c8,0 14,6 14,14 0,8 -6,15 -14,15zm14 51l0 0c0,-8 -6,-14 -14,-14l-58 0c-8,0 -14,6 -14,14 0,8 6,15 14,15l58 0c8,0 14,-7 14,-15zm0 66l0 0c0,-7 -6,-14 -14,-14l-58 0c-8,0 -14,7 -14,14 0,8 6,15 14,15l58 0c8,0 14,-7 14,-15zm0 66l0 0c0,-7 -6,-14 -14,-14l-58 0c-8,0 -14,7 -14,14 0,8 6,15 14,15l58 0c8,0 14,-7 14,-15zm0 67l0 0c0,-8 -6,-15 -14,-15l-58 0c-8,0 -14,7 -14,15 0,7 6,14 14,14l58 0c8,0 14,-7 14,-14zm0 66l0 0c0,-8 -6,-15 -14,-15l-58 0c-8,0 -14,7 -14,15 0,7 6,14 14,14l58 0c8,0 14,-7 14,-14zm0 66l0 0c0,-8 -6,-15 -14,-15l-58 0c-8,0 -14,7 -14,15 0,8 6,14 14,14l58 0c8,0 14,-6 14,-14zm0 66l0 0c0,-8 -6,-15 -14,-15l-58 0c-8,0 -14,7 -14,15 0,8 6,14 14,14l58 0c8,0 14,-6 14,-14zm216 -463l0 0c0,-8 -6,-14 -14,-14l-152 0c-8,0 -14,6 -14,14 0,8 6,15 14,15l152 0c8,0 14,-7 14,-15zm0 66l0 0c0,-8 -6,-14 -14,-14l-152 0c-8,0 -14,6 -14,14 0,8 6,15 14,15l152 0c8,0 14,-7 14,-15zm0 66l0 0c0,-7 -6,-14 -14,-14l-152 0c-8,0 -14,7 -14,14 0,8 6,15 14,15l152 0c8,0 14,-7 14,-15zm0 66l0 0c0,-7 -6,-14 -14,-14l-152 0c-8,0 -14,7 -14,14 0,8 6,15 14,15l152 0c8,0 14,-7 14,-15zm0 67l0 0c0,-8 -6,-15 -14,-15l-152 0c-8,0 -14,7 -14,15 0,7 6,14 14,14l152 0c8,0 14,-7 14,-14zm182 66l0 0c0,-8 -7,-15 -14,-15l-152 0c-8,0 -14,7 -14,15 0,7 6,14 14,14l152 0c7,0 14,-7 14,-14zm0 66l0 0c0,-8 -7,-15 -14,-15l-152 0c-8,0 -14,7 -14,15 0,8 6,14 14,14l152 0c7,0 14,-6 14,-14zm0 66l0 0c0,-8 -7,-15 -14,-15l-152 0c-8,0 -14,7 -14,15 0,8 6,14 14,14l152 0c7,0 14,-6 14,-14zm-115 -463l0 0c0,-9 -7,-16 -17,-16 -9,0 -16,7 -16,16 0,9 7,17 16,17 10,0 17,-8 17,-17zm49 0l0 0c0,-9 -7,-16 -16,-16 -9,0 -17,7 -17,16 0,9 8,17 17,17 9,0 16,-8 16,-17zm50 0l0 0c0,-9 -7,-16 -16,-16 -10,0 -17,7 -17,16 0,9 7,17 17,17 9,0 16,-8 16,-17zm50 0l0 0c0,-9 -8,-16 -17,-16 -9,0 -16,7 -16,16 0,9 7,17 16,17 9,0 17,-8 17,-17zm49 0l0 0c0,-9 -7,-16 -16,-16 -10,0 -17,7 -17,16 0,9 7,17 17,17 9,0 16,-8 16,-17zm50 0l0 0c0,-9 -8,-16 -17,-16 -9,0 -16,7 -16,16 0,9 7,17 16,17 9,0 17,-8 17,-17zm-248 132l0 0c0,-9 -7,-16 -17,-16 -9,0 -16,7 -16,16 0,10 7,17 16,17 10,0 17,-7 17,-17zm49 0l0 0c0,-9 -7,-16 -16,-16 -9,0 -17,7 -17,16 0,10 8,17 17,17 9,0 16,-7 16,-17zm50 0l0 0c0,-9 -7,-16 -16,-16 -10,0 -17,7 -17,16 0,10 7,17 17,17 9,0 16,-7 16,-17zm50 0l0 0c0,-9 -8,-16 -17,-16 -9,0 -16,7 -16,16 0,10 7,17 16,17 9,0 17,-7 17,-17zm49 0l0 0c0,-9 -7,-16 -16,-16 -10,0 -17,7 -17,16 0,10 7,17 17,17 9,0 16,-7 16,-17zm50 0l0 0c0,-9 -8,-16 -17,-16 -9,0 -16,7 -16,16 0,10 7,17 16,17 9,0 17,-7 17,-17zm-79 190l0 0c0,-9 -7,-16 -16,-16 -9,0 -17,7 -17,16 0,9 8,17 17,17 9,0 16,-8 16,-17zm50 0l0 0c0,-9 -8,-16 -17,-16 -9,0 -16,7 -16,16 0,9 7,17 16,17 9,0 17,-8 17,-17zm49 0l0 0c0,-9 -7,-16 -16,-16 -9,0 -17,7 -17,16 0,9 8,17 17,17 9,0 16,-8 16,-17zm50 0l0 0c0,-9 -8,-16 -17,-16 -9,0 -16,7 -16,16 0,9 7,17 16,17 9,0 17,-8 17,-17zm49 0l0 0c0,-9 -7,-16 -16,-16 -9,0 -17,7 -17,16 0,9 8,17 17,17 9,0 16,-8 16,-17zm50 0l0 0c0,-9 -7,-16 -17,-16 -9,0 -16,7 -16,16 0,9 7,17 16,17 10,0 17,-8 17,-17zm-248 137l0 0c0,-10 -7,-17 -16,-17 -9,0 -17,7 -17,17 0,9 8,16 17,16 9,0 16,-7 16,-16zm50 0l0 0c0,-10 -8,-17 -17,-17 -9,0 -16,7 -16,17 0,9 7,16 16,16 9,0 17,-7 17,-16zm49 0l0 0c0,-10 -7,-17 -16,-17 -9,0 -17,7 -17,17 0,9 8,16 17,16 9,0 16,-7 16,-16zm50 0l0 0c0,-10 -8,-17 -17,-17 -9,0 -16,7 -16,17 0,9 7,16 16,16 9,0 17,-7 17,-16zm49 0l0 0c0,-10 -7,-17 -16,-17 -9,0 -17,7 -17,17 0,9 8,16 17,16 9,0 16,-7 16,-16zm50 0l0 0c0,-10 -7,-17 -17,-17 -9,0 -16,7 -16,17 0,9 7,16 16,16 10,0 17,-7 17,-16z"/>
     <path class="fil2" d="M5867 2248l-58 0c-8,0 -14,-7 -14,-15 0,-8 6,-14 14,-14l58 0c8,0 14,6 14,14 0,8 -6,15 -14,15zm14 51l0 0c0,-7 -6,-14 -14,-14l-58 0c-8,0 -14,7 -14,14 0,8 6,15 14,15l58 0c8,0 14,-7 14,-15zm0 66l0 0c0,-7 -6,-14 -14,-14l-58 0c-8,0 -14,7 -14,14 0,8 6,15 14,15l58 0c8,0 14,-7 14,-15zm0 67l0 0c0,-8 -6,-15 -14,-15l-58 0c-8,0 -14,7 -14,15 0,7 6,14 14,14l58 0c8,0 14,-7 14,-14zm0 66l0 0c0,-8 -6,-15 -14,-15l-58 0c-8,0 -14,7 -14,15 0,7 6,14 14,14l58 0c8,0 14,-7 14,-14zm0 66l0 0c0,-8 -6,-15 -14,-15l-58 0c-8,0 -14,7 -14,15 0,8 6,14 14,14l58 0c8,0 14,-6 14,-14zm0 66l0 0c0,-8 -6,-15 -14,-15l-58 0c-8,0 -14,7 -14,15 0,8 6,14 14,14l58 0c8,0 14,-6 14,-14zm0 66l0 0c0,-8 -6,-14 -14,-14l-58 0c-8,0 -14,6 -14,14 0,8 6,14 14,14l58 0c8,0 14,-6 14,-14zm217 -463l0 0c0,-8 -7,-14 -15,-14l-151 0c-8,0 -15,6 -15,14 0,8 7,15 15,15l151 0c8,0 15,-7 15,-15zm0 66l0 0c0,-7 -7,-14 -15,-14l-151 0c-8,0 -15,7 -15,14 0,8 7,15 15,15l151 0c8,0 15,-7 15,-15zm0 66l0 0c0,-7 -7,-14 -15,-14l-151 0c-8,0 -15,7 -15,14 0,8 7,15 15,15l151 0c8,0 15,-7 15,-15zm0 67l0 0c0,-8 -7,-15 -15,-15l-151 0c-8,0 -15,7 -15,15 0,7 7,14 15,14l151 0c8,0 15,-7 15,-14zm0 66l0 0c0,-8 -7,-15 -15,-15l-151 0c-8,0 -15,7 -15,15 0,7 7,14 15,14l151 0c8,0 15,-7 15,-14zm181 66l0 0c0,-8 -6,-15 -14,-15l-152 0c-8,0 -14,7 -14,15 0,8 6,14 14,14l152 0c8,0 14,-6 14,-14zm0 66l0 0c0,-8 -6,-15 -14,-15l-152 0c-8,0 -14,7 -14,15 0,8 6,14 14,14l152 0c8,0 14,-6 14,-14zm0 66l0 0c0,-8 -6,-14 -14,-14l-152 0c-8,0 -14,6 -14,14 0,8 6,14 14,14l152 0c8,0 14,-6 14,-14zm-115 -463l0 0c0,-9 -7,-16 -16,-16 -9,0 -17,7 -17,16 0,9 8,17 17,17 9,0 16,-8 16,-17zm50 0l0 0c0,-9 -7,-16 -17,-16 -9,0 -16,7 -16,16 0,9 7,17 16,17 10,0 17,-8 17,-17zm49 0l0 0c0,-9 -7,-16 -16,-16 -9,0 -17,7 -17,16 0,9 8,17 17,17 9,0 16,-8 16,-17zm50 0l0 0c0,-9 -7,-16 -17,-16 -9,0 -16,7 -16,16 0,9 7,17 16,17 10,0 17,-8 17,-17zm50 0l0 0c0,-9 -8,-16 -17,-16 -9,0 -17,7 -17,16 0,9 8,17 17,17 9,0 17,-8 17,-17zm49 0l0 0c0,-9 -7,-16 -16,-16 -10,0 -17,7 -17,16 0,9 7,17 17,17 9,0 16,-8 16,-17zm-248 132l0 0c0,-9 -7,-16 -16,-16 -9,0 -17,7 -17,16 0,10 8,17 17,17 9,0 16,-7 16,-17zm50 0l0 0c0,-9 -7,-16 -17,-16 -9,0 -16,7 -16,16 0,10 7,17 16,17 10,0 17,-7 17,-17zm49 0l0 0c0,-9 -7,-16 -16,-16 -9,0 -17,7 -17,16 0,10 8,17 17,17 9,0 16,-7 16,-17zm50 0l0 0c0,-9 -7,-16 -17,-16 -9,0 -16,7 -16,16 0,10 7,17 16,17 10,0 17,-7 17,-17zm50 0l0 0c0,-9 -8,-16 -17,-16 -9,0 -17,7 -17,16 0,10 8,17 17,17 9,0 17,-7 17,-17zm49 0l0 0c0,-9 -7,-16 -16,-16 -10,0 -17,7 -17,16 0,10 7,17 17,17 9,0 16,-7 16,-17zm-78 190l0 0c0,-9 -8,-16 -17,-16 -9,0 -16,7 -16,16 0,10 7,17 16,17 9,0 17,-7 17,-17zm49 0l0 0c0,-9 -7,-16 -16,-16 -9,0 -17,7 -17,16 0,10 8,17 17,17 9,0 16,-7 16,-17zm50 0l0 0c0,-9 -8,-16 -17,-16 -9,0 -16,7 -16,16 0,10 7,17 16,17 9,0 17,-7 17,-17zm49 0l0 0c0,-9 -7,-16 -16,-16 -9,0 -17,7 -17,16 0,10 8,17 17,17 9,0 16,-7 16,-17zm50 0l0 0c0,-9 -8,-16 -17,-16 -9,0 -16,7 -16,16 0,10 7,17 16,17 9,0 17,-7 17,-17zm49 0l0 0c0,-9 -7,-16 -16,-16 -9,0 -17,7 -17,16 0,10 8,17 17,17 9,0 16,-7 16,-17zm-247 137l0 0c0,-9 -8,-17 -17,-17 -9,0 -16,8 -16,17 0,9 7,16 16,16 9,0 17,-7 17,-16zm49 0l0 0c0,-9 -7,-17 -16,-17 -9,0 -17,8 -17,17 0,9 8,16 17,16 9,0 16,-7 16,-16zm50 0l0 0c0,-9 -8,-17 -17,-17 -9,0 -16,8 -16,17 0,9 7,16 16,16 9,0 17,-7 17,-16zm49 0l0 0c0,-9 -7,-17 -16,-17 -9,0 -17,8 -17,17 0,9 8,16 17,16 9,0 16,-7 16,-16zm50 0l0 0c0,-9 -8,-17 -17,-17 -9,0 -16,8 -16,17 0,9 7,16 16,16 9,0 17,-7 17,-16zm49 0l0 0c0,-9 -7,-17 -16,-17 -9,0 -17,8 -17,17 0,9 8,16 17,16 9,0 16,-7 16,-16z"/>
     <path class="fil2" d="M5867 2789l-58 0c-8,0 -14,-6 -14,-14 0,-8 6,-15 14,-15l58 0c8,0 14,7 14,15 0,8 -6,14 -14,14zm14 52l0 0c0,-8 -6,-14 -14,-14l-58 0c-8,0 -14,6 -14,14 0,8 6,14 14,14l58 0c8,0 14,-6 14,-14zm0 66l0 0c0,-8 -6,-14 -14,-14l-58 0c-8,0 -14,6 -14,14 0,8 6,14 14,14l58 0c8,0 14,-6 14,-14zm0 66l0 0c0,-8 -6,-14 -14,-14l-58 0c-8,0 -14,6 -14,14 0,8 6,14 14,14l58 0c8,0 14,-6 14,-14zm0 66l0 0c0,-8 -6,-14 -14,-14l-58 0c-8,0 -14,6 -14,14 0,8 6,14 14,14l58 0c8,0 14,-6 14,-14zm0 66l0 0c0,-8 -6,-14 -14,-14l-58 0c-8,0 -14,6 -14,14 0,8 6,14 14,14l58 0c8,0 14,-6 14,-14zm0 66l0 0c0,-8 -6,-14 -14,-14l-58 0c-8,0 -14,6 -14,14 0,8 6,14 14,14l58 0c8,0 14,-6 14,-14zm0 66l0 0c0,-8 -6,-14 -14,-14l-58 0c-8,0 -14,6 -14,14 0,8 6,14 14,14l58 0c8,0 14,-6 14,-14zm217 -462l0 0c0,-8 -7,-15 -15,-15l-151 0c-8,0 -15,7 -15,15 0,8 7,14 15,14l151 0c8,0 15,-6 15,-14zm0 66l0 0c0,-8 -7,-14 -15,-14l-151 0c-8,0 -15,6 -15,14 0,8 7,14 15,14l151 0c8,0 15,-6 15,-14zm0 66l0 0c0,-8 -7,-14 -15,-14l-151 0c-8,0 -15,6 -15,14 0,8 7,14 15,14l151 0c8,0 15,-6 15,-14zm0 66l0 0c0,-8 -7,-14 -15,-14l-151 0c-8,0 -15,6 -15,14 0,8 7,14 15,14l151 0c8,0 15,-6 15,-14zm0 66l0 0c0,-8 -7,-14 -15,-14l-151 0c-8,0 -15,6 -15,14 0,8 7,14 15,14l151 0c8,0 15,-6 15,-14zm181 66l0 0c0,-8 -6,-14 -14,-14l-152 0c-8,0 -14,6 -14,14 0,8 6,14 14,14l152 0c8,0 14,-6 14,-14zm0 66l0 0c0,-8 -6,-14 -14,-14l-152 0c-8,0 -14,6 -14,14 0,8 6,14 14,14l152 0c8,0 14,-6 14,-14zm0 66l0 0c0,-8 -6,-14 -14,-14l-152 0c-8,0 -14,6 -14,14 0,8 6,14 14,14l152 0c8,0 14,-6 14,-14zm-115 -462l0 0c0,-9 -7,-17 -16,-17 -9,0 -17,8 -17,17 0,9 8,16 17,16 9,0 16,-7 16,-16zm50 0l0 0c0,-9 -7,-17 -17,-17 -9,0 -16,8 -16,17 0,9 7,16 16,16 10,0 17,-7 17,-16zm49 0l0 0c0,-9 -7,-17 -16,-17 -9,0 -17,8 -17,17 0,9 8,16 17,16 9,0 16,-7 16,-16zm50 0l0 0c0,-9 -7,-17 -17,-17 -9,0 -16,8 -16,17 0,9 7,16 16,16 10,0 17,-7 17,-16zm50 0l0 0c0,-9 -8,-17 -17,-17 -9,0 -17,8 -17,17 0,9 8,16 17,16 9,0 17,-7 17,-16zm49 0l0 0c0,-9 -7,-17 -16,-17 -10,0 -17,8 -17,17 0,9 7,16 17,16 9,0 16,-7 16,-16zm-248 132l0 0c0,-9 -7,-17 -16,-17 -9,0 -17,8 -17,17 0,9 8,16 17,16 9,0 16,-7 16,-16zm50 0l0 0c0,-9 -7,-17 -17,-17 -9,0 -16,8 -16,17 0,9 7,16 16,16 10,0 17,-7 17,-16zm49 0l0 0c0,-9 -7,-17 -16,-17 -9,0 -17,8 -17,17 0,9 8,16 17,16 9,0 16,-7 16,-16zm50 0l0 0c0,-9 -7,-17 -17,-17 -9,0 -16,8 -16,17 0,9 7,16 16,16 10,0 17,-7 17,-16zm50 0l0 0c0,-9 -8,-17 -17,-17 -9,0 -17,8 -17,17 0,9 8,16 17,16 9,0 17,-7 17,-16zm49 0l0 0c0,-9 -7,-17 -16,-17 -10,0 -17,8 -17,17 0,9 7,16 17,16 9,0 16,-7 16,-16zm-78 190l0 0c0,-9 -8,-17 -17,-17 -9,0 -16,8 -16,17 0,9 7,16 16,16 9,0 17,-7 17,-16zm49 0l0 0c0,-9 -7,-17 -16,-17 -9,0 -17,8 -17,17 0,9 8,16 17,16 9,0 16,-7 16,-16zm50 0l0 0c0,-9 -8,-17 -17,-17 -9,0 -16,8 -16,17 0,9 7,16 16,16 9,0 17,-7 17,-16zm49 0l0 0c0,-9 -7,-17 -16,-17 -9,0 -17,8 -17,17 0,9 8,16 17,16 9,0 16,-7 16,-16zm50 0l0 0c0,-9 -8,-17 -17,-17 -9,0 -16,8 -16,17 0,9 7,16 16,16 9,0 17,-7 17,-16zm49 0l0 0c0,-9 -7,-17 -16,-17 -9,0 -17,8 -17,17 0,9 8,16 17,16 9,0 16,-7 16,-16zm-247 136l0 0c0,-9 -8,-17 -17,-17 -9,0 -16,8 -16,17 0,9 7,17 16,17 9,0 17,-8 17,-17zm49 0l0 0c0,-9 -7,-17 -16,-17 -9,0 -17,8 -17,17 0,9 8,17 17,17 9,0 16,-8 16,-17zm50 0l0 0c0,-9 -8,-17 -17,-17 -9,0 -16,8 -16,17 0,9 7,17 16,17 9,0 17,-8 17,-17zm49 0l0 0c0,-9 -7,-17 -16,-17 -9,0 -17,8 -17,17 0,9 8,17 17,17 9,0 16,-8 16,-17zm50 0l0 0c0,-9 -8,-17 -17,-17 -9,0 -16,8 -16,17 0,9 7,17 16,17 9,0 17,-8 17,-17zm49 0l0 0c0,-9 -7,-17 -16,-17 -9,0 -17,8 -17,17 0,9 8,17 17,17 9,0 16,-8 16,-17z"/>
    </g>
    <g>
     <path class="fil2" d="M3034 1047l-58 0c-8,0 -14,-7 -14,-14 0,-8 6,-15 14,-15l58 0c8,0 14,7 14,15 0,7 -6,14 -14,14zm14 52l0 0c0,-8 -6,-15 -14,-15l-58 0c-8,0 -14,7 -14,15 0,7 6,14 14,14l58 0c8,0 14,-7 14,-14zm0 66l0 0c0,-8 -6,-15 -14,-15l-58 0c-8,0 -14,7 -14,15 0,8 6,14 14,14l58 0c8,0 14,-6 14,-14zm0 66l0 0c0,-8 -6,-15 -14,-15l-58 0c-8,0 -14,7 -14,15 0,8 6,14 14,14l58 0c8,0 14,-6 14,-14zm0 66l0 0c0,-8 -6,-14 -14,-14l-58 0c-8,0 -14,6 -14,14 0,8 6,14 14,14l58 0c8,0 14,-6 14,-14zm0 66l0 0c0,-8 -6,-14 -14,-14l-58 0c-8,0 -14,6 -14,14 0,8 6,14 14,14l58 0c8,0 14,-6 14,-14zm0 66l0 0c0,-8 -6,-14 -14,-14l-58 0c-8,0 -14,6 -14,14 0,8 6,14 14,14l58 0c8,0 14,-6 14,-14zm0 66l0 0c0,-8 -6,-14 -14,-14l-58 0c-8,0 -14,6 -14,14 0,8 6,14 14,14l58 0c8,0 14,-6 14,-14zm216 -462l0 0c0,-8 -6,-15 -14,-15l-152 0c-7,0 -14,7 -14,15 0,7 7,14 14,14l152 0c8,0 14,-7 14,-14zm0 66l0 0c0,-8 -6,-15 -14,-15l-152 0c-7,0 -14,7 -14,15 0,7 7,14 14,14l152 0c8,0 14,-7 14,-14zm0 66l0 0c0,-8 -6,-15 -14,-15l-152 0c-7,0 -14,7 -14,15 0,8 7,14 14,14l152 0c8,0 14,-6 14,-14zm0 66l0 0c0,-8 -6,-15 -14,-15l-152 0c-7,0 -14,7 -14,15 0,8 7,14 14,14l152 0c8,0 14,-6 14,-14zm0 66l0 0c0,-8 -6,-14 -14,-14l-152 0c-7,0 -14,6 -14,14 0,8 7,14 14,14l152 0c8,0 14,-6 14,-14zm182 66l0 0c0,-8 -6,-14 -14,-14l-152 0c-8,0 -14,6 -14,14 0,8 6,14 14,14l152 0c8,0 14,-6 14,-14zm0 66l0 0c0,-8 -6,-14 -14,-14l-152 0c-8,0 -14,6 -14,14 0,8 6,14 14,14l152 0c8,0 14,-6 14,-14zm0 66l0 0c0,-8 -6,-14 -14,-14l-152 0c-8,0 -14,6 -14,14 0,8 6,14 14,14l152 0c8,0 14,-6 14,-14zm-115 -462l0 0c0,-10 -7,-17 -16,-17 -9,0 -17,7 -17,17 0,9 8,16 17,16 9,0 16,-7 16,-16zm50 0l0 0c0,-10 -8,-17 -17,-17 -9,0 -16,7 -16,17 0,9 7,16 16,16 9,0 17,-7 17,-16zm49 0l0 0c0,-10 -7,-17 -16,-17 -9,0 -17,7 -17,17 0,9 8,16 17,16 9,0 16,-7 16,-16zm50 0l0 0c0,-10 -8,-17 -17,-17 -9,0 -16,7 -16,17 0,9 7,16 16,16 9,0 17,-7 17,-16zm49 0l0 0c0,-10 -7,-17 -16,-17 -9,0 -17,7 -17,17 0,9 8,16 17,16 9,0 16,-7 16,-16zm50 0l0 0c0,-10 -7,-17 -17,-17 -9,0 -16,7 -16,17 0,9 7,16 16,16 10,0 17,-7 17,-16zm-248 132l0 0c0,-9 -7,-17 -16,-17 -9,0 -17,8 -17,17 0,9 8,16 17,16 9,0 16,-7 16,-16zm50 0l0 0c0,-9 -8,-17 -17,-17 -9,0 -16,8 -16,17 0,9 7,16 16,16 9,0 17,-7 17,-16zm49 0l0 0c0,-9 -7,-17 -16,-17 -9,0 -17,8 -17,17 0,9 8,16 17,16 9,0 16,-7 16,-16zm50 0l0 0c0,-9 -8,-17 -17,-17 -9,0 -16,8 -16,17 0,9 7,16 16,16 9,0 17,-7 17,-16zm49 0l0 0c0,-9 -7,-17 -16,-17 -9,0 -17,8 -17,17 0,9 8,16 17,16 9,0 16,-7 16,-16zm50 0l0 0c0,-9 -7,-17 -17,-17 -9,0 -16,8 -16,17 0,9 7,16 16,16 10,0 17,-7 17,-16zm-79 190l0 0c0,-10 -7,-17 -16,-17 -9,0 -17,7 -17,17 0,9 8,16 17,16 9,0 16,-7 16,-16zm50 0l0 0c0,-10 -7,-17 -17,-17 -9,0 -16,7 -16,17 0,9 7,16 16,16 10,0 17,-7 17,-16zm50 0l0 0c0,-10 -8,-17 -17,-17 -9,0 -16,7 -16,17 0,9 7,16 16,16 9,0 17,-7 17,-16zm49 0l0 0c0,-10 -7,-17 -16,-17 -10,0 -17,7 -17,17 0,9 7,16 17,16 9,0 16,-7 16,-16zm50 0l0 0c0,-10 -8,-17 -17,-17 -9,0 -16,7 -16,17 0,9 7,16 16,16 9,0 17,-7 17,-16zm49 0l0 0c0,-10 -7,-17 -16,-17 -9,0 -17,7 -17,17 0,9 8,16 17,16 9,0 16,-7 16,-16zm-248 136l0 0c0,-9 -7,-17 -16,-17 -9,0 -17,8 -17,17 0,9 8,16 17,16 9,0 16,-7 16,-16zm50 0l0 0c0,-9 -7,-17 -17,-17 -9,0 -16,8 -16,17 0,9 7,16 16,16 10,0 17,-7 17,-16zm50 0l0 0c0,-9 -8,-17 -17,-17 -9,0 -16,8 -16,17 0,9 7,16 16,16 9,0 17,-7 17,-16zm49 0l0 0c0,-9 -7,-17 -16,-17 -10,0 -17,8 -17,17 0,9 7,16 17,16 9,0 16,-7 16,-16zm50 0l0 0c0,-9 -8,-17 -17,-17 -9,0 -16,8 -16,17 0,9 7,16 16,16 9,0 17,-7 17,-16zm49 0l0 0c0,-9 -7,-17 -16,-17 -9,0 -17,8 -17,17 0,9 8,16 17,16 9,0 16,-7 16,-16z"/>
     <path class="fil2" d="M3034 1575l-58 0c-8,0 -14,-6 -14,-14 0,-8 6,-14 14,-14l58 0c8,0 14,6 14,14 0,8 -6,14 -14,14zm14 52l0 0c0,-8 -6,-14 -14,-14l-58 0c-8,0 -14,6 -14,14 0,8 6,14 14,14l58 0c8,0 14,-6 14,-14zm0 66l0 0c0,-8 -6,-14 -14,-14l-58 0c-8,0 -14,6 -14,14 0,8 6,15 14,15l58 0c8,0 14,-7 14,-15zm0 66l0 0c0,-8 -6,-14 -14,-14l-58 0c-8,0 -14,6 -14,14 0,8 6,15 14,15l58 0c8,0 14,-7 14,-15zm0 66l0 0c0,-8 -6,-14 -14,-14l-58 0c-8,0 -14,6 -14,14 0,8 6,15 14,15l58 0c8,0 14,-7 14,-15zm0 66l0 0c0,-7 -6,-14 -14,-14l-58 0c-8,0 -14,7 -14,14 0,8 6,15 14,15l58 0c8,0 14,-7 14,-15zm0 67l0 0c0,-8 -6,-15 -14,-15l-58 0c-8,0 -14,7 -14,15 0,7 6,14 14,14l58 0c8,0 14,-7 14,-14zm0 66l0 0c0,-8 -6,-15 -14,-15l-58 0c-8,0 -14,7 -14,15 0,7 6,14 14,14l58 0c8,0 14,-7 14,-14zm216 -463l0 0c0,-8 -6,-14 -14,-14l-152 0c-7,0 -14,6 -14,14 0,8 7,14 14,14l152 0c8,0 14,-6 14,-14zm0 66l0 0c0,-8 -6,-14 -14,-14l-152 0c-7,0 -14,6 -14,14 0,8 7,14 14,14l152 0c8,0 14,-6 14,-14zm0 66l0 0c0,-8 -6,-14 -14,-14l-152 0c-7,0 -14,6 -14,14 0,8 7,15 14,15l152 0c8,0 14,-7 14,-15zm0 66l0 0c0,-8 -6,-14 -14,-14l-152 0c-7,0 -14,6 -14,14 0,8 7,15 14,15l152 0c8,0 14,-7 14,-15zm0 66l0 0c0,-8 -6,-14 -14,-14l-152 0c-7,0 -14,6 -14,14 0,8 7,15 14,15l152 0c8,0 14,-7 14,-15zm182 66l0 0c0,-7 -6,-14 -14,-14l-152 0c-8,0 -14,7 -14,14 0,8 6,15 14,15l152 0c8,0 14,-7 14,-15zm0 67l0 0c0,-8 -6,-15 -14,-15l-152 0c-8,0 -14,7 -14,15 0,7 6,14 14,14l152 0c8,0 14,-7 14,-14zm0 66l0 0c0,-8 -6,-15 -14,-15l-152 0c-8,0 -14,7 -14,15 0,7 6,14 14,14l152 0c8,0 14,-7 14,-14zm-115 -463l0 0c0,-9 -7,-16 -16,-16 -9,0 -17,7 -17,16 0,9 8,17 17,17 9,0 16,-8 16,-17zm50 0l0 0c0,-9 -8,-16 -17,-16 -9,0 -16,7 -16,16 0,9 7,17 16,17 9,0 17,-8 17,-17zm49 0l0 0c0,-9 -7,-16 -16,-16 -9,0 -17,7 -17,16 0,9 8,17 17,17 9,0 16,-8 16,-17zm50 0l0 0c0,-9 -8,-16 -17,-16 -9,0 -16,7 -16,16 0,9 7,17 16,17 9,0 17,-8 17,-17zm49 0l0 0c0,-9 -7,-16 -16,-16 -9,0 -17,7 -17,16 0,9 8,17 17,17 9,0 16,-8 16,-17zm50 0l0 0c0,-9 -7,-16 -17,-16 -9,0 -16,7 -16,16 0,9 7,17 16,17 10,0 17,-8 17,-17zm-248 132l0 0c0,-9 -7,-16 -16,-16 -9,0 -17,7 -17,16 0,9 8,17 17,17 9,0 16,-8 16,-17zm50 0l0 0c0,-9 -8,-16 -17,-16 -9,0 -16,7 -16,16 0,9 7,17 16,17 9,0 17,-8 17,-17zm49 0l0 0c0,-9 -7,-16 -16,-16 -9,0 -17,7 -17,16 0,9 8,17 17,17 9,0 16,-8 16,-17zm50 0l0 0c0,-9 -8,-16 -17,-16 -9,0 -16,7 -16,16 0,9 7,17 16,17 9,0 17,-8 17,-17zm49 0l0 0c0,-9 -7,-16 -16,-16 -9,0 -17,7 -17,16 0,9 8,17 17,17 9,0 16,-8 16,-17zm50 0l0 0c0,-9 -7,-16 -17,-16 -9,0 -16,7 -16,16 0,9 7,17 16,17 10,0 17,-8 17,-17zm-79 190l0 0c0,-9 -7,-16 -16,-16 -9,0 -17,7 -17,16 0,9 8,17 17,17 9,0 16,-8 16,-17zm50 0l0 0c0,-9 -7,-16 -17,-16 -9,0 -16,7 -16,16 0,9 7,17 16,17 10,0 17,-8 17,-17zm50 0l0 0c0,-9 -8,-16 -17,-16 -9,0 -16,7 -16,16 0,9 7,17 16,17 9,0 17,-8 17,-17zm49 0l0 0c0,-9 -7,-16 -16,-16 -10,0 -17,7 -17,16 0,9 7,17 17,17 9,0 16,-8 16,-17zm50 0l0 0c0,-9 -8,-16 -17,-16 -9,0 -16,7 -16,16 0,9 7,17 16,17 9,0 17,-8 17,-17zm49 0l0 0c0,-9 -7,-16 -16,-16 -9,0 -17,7 -17,16 0,9 8,17 17,17 9,0 16,-8 16,-17zm-248 136l0 0c0,-9 -7,-16 -16,-16 -9,0 -17,7 -17,16 0,10 8,17 17,17 9,0 16,-7 16,-17zm50 0l0 0c0,-9 -7,-16 -17,-16 -9,0 -16,7 -16,16 0,10 7,17 16,17 10,0 17,-7 17,-17zm50 0l0 0c0,-9 -8,-16 -17,-16 -9,0 -16,7 -16,16 0,10 7,17 16,17 9,0 17,-7 17,-17zm49 0l0 0c0,-9 -7,-16 -16,-16 -10,0 -17,7 -17,16 0,10 7,17 17,17 9,0 16,-7 16,-17zm50 0l0 0c0,-9 -8,-16 -17,-16 -9,0 -16,7 -16,16 0,10 7,17 16,17 9,0 17,-7 17,-17zm49 0l0 0c0,-9 -7,-16 -16,-16 -9,0 -17,7 -17,16 0,10 8,17 17,17 9,0 16,-7 16,-17z"/>
     <path class="fil2" d="M3034 2117l-58 0c-8,0 -14,-7 -14,-14 0,-8 6,-15 14,-15l58 0c8,0 14,7 14,15 0,7 -6,14 -14,14zm14 52l0 0c0,-8 -6,-15 -14,-15l-58 0c-8,0 -14,7 -14,15 0,7 6,14 14,14l58 0c8,0 14,-7 14,-14zm0 66l0 0c0,-8 -6,-15 -14,-15l-58 0c-8,0 -14,7 -14,15 0,8 6,14 14,14l58 0c8,0 14,-6 14,-14zm0 66l0 0c0,-8 -6,-15 -14,-15l-58 0c-8,0 -14,7 -14,15 0,8 6,14 14,14l58 0c8,0 14,-6 14,-14zm0 66l0 0c0,-8 -6,-15 -14,-15l-58 0c-8,0 -14,7 -14,15 0,8 6,14 14,14l58 0c8,0 14,-6 14,-14zm0 66l0 0c0,-8 -6,-14 -14,-14l-58 0c-8,0 -14,6 -14,14 0,8 6,14 14,14l58 0c8,0 14,-6 14,-14zm0 66l0 0c0,-8 -6,-14 -14,-14l-58 0c-8,0 -14,6 -14,14 0,8 6,14 14,14l58 0c8,0 14,-6 14,-14zm0 66l0 0c0,-8 -6,-14 -14,-14l-58 0c-8,0 -14,6 -14,14 0,8 6,14 14,14l58 0c8,0 14,-6 14,-14zm216 -462l0 0c0,-8 -6,-15 -14,-15l-152 0c-7,0 -14,7 -14,15 0,7 7,14 14,14l152 0c8,0 14,-7 14,-14zm0 66l0 0c0,-8 -6,-15 -14,-15l-152 0c-7,0 -14,7 -14,15 0,7 7,14 14,14l152 0c8,0 14,-7 14,-14zm0 66l0 0c0,-8 -6,-15 -14,-15l-152 0c-7,0 -14,7 -14,15 0,8 7,14 14,14l152 0c8,0 14,-6 14,-14zm0 66l0 0c0,-8 -6,-15 -14,-15l-152 0c-7,0 -14,7 -14,15 0,8 7,14 14,14l152 0c8,0 14,-6 14,-14zm0 66l0 0c0,-8 -6,-15 -14,-15l-152 0c-7,0 -14,7 -14,15 0,8 7,14 14,14l152 0c8,0 14,-6 14,-14zm182 66l0 0c0,-8 -6,-14 -14,-14l-152 0c-8,0 -14,6 -14,14 0,8 6,14 14,14l152 0c8,0 14,-6 14,-14zm0 66l0 0c0,-8 -6,-14 -14,-14l-152 0c-8,0 -14,6 -14,14 0,8 6,14 14,14l152 0c8,0 14,-6 14,-14zm0 66l0 0c0,-8 -6,-14 -14,-14l-152 0c-8,0 -14,6 -14,14 0,8 6,14 14,14l152 0c8,0 14,-6 14,-14zm-115 -462l0 0c0,-10 -7,-17 -16,-17 -9,0 -17,7 -17,17 0,9 8,16 17,16 9,0 16,-7 16,-16zm50 0l0 0c0,-10 -8,-17 -17,-17 -9,0 -16,7 -16,17 0,9 7,16 16,16 9,0 17,-7 17,-16zm49 0l0 0c0,-10 -7,-17 -16,-17 -9,0 -17,7 -17,17 0,9 8,16 17,16 9,0 16,-7 16,-16zm50 0l0 0c0,-10 -8,-17 -17,-17 -9,0 -16,7 -16,17 0,9 7,16 16,16 9,0 17,-7 17,-16zm49 0l0 0c0,-10 -7,-17 -16,-17 -9,0 -17,7 -17,17 0,9 8,16 17,16 9,0 16,-7 16,-16zm50 0l0 0c0,-10 -7,-17 -17,-17 -9,0 -16,7 -16,17 0,9 7,16 16,16 10,0 17,-7 17,-16zm-248 132l0 0c0,-9 -7,-17 -16,-17 -9,0 -17,8 -17,17 0,9 8,16 17,16 9,0 16,-7 16,-16zm50 0l0 0c0,-9 -8,-17 -17,-17 -9,0 -16,8 -16,17 0,9 7,16 16,16 9,0 17,-7 17,-16zm49 0l0 0c0,-9 -7,-17 -16,-17 -9,0 -17,8 -17,17 0,9 8,16 17,16 9,0 16,-7 16,-16zm50 0l0 0c0,-9 -8,-17 -17,-17 -9,0 -16,8 -16,17 0,9 7,16 16,16 9,0 17,-7 17,-16zm49 0l0 0c0,-9 -7,-17 -16,-17 -9,0 -17,8 -17,17 0,9 8,16 17,16 9,0 16,-7 16,-16zm50 0l0 0c0,-9 -7,-17 -17,-17 -9,0 -16,8 -16,17 0,9 7,16 16,16 10,0 17,-7 17,-16zm-79 190l0 0c0,-10 -7,-17 -16,-17 -9,0 -17,7 -17,17 0,9 8,16 17,16 9,0 16,-7 16,-16zm50 0l0 0c0,-10 -7,-17 -17,-17 -9,0 -16,7 -16,17 0,9 7,16 16,16 10,0 17,-7 17,-16zm50 0l0 0c0,-10 -8,-17 -17,-17 -9,0 -16,7 -16,17 0,9 7,16 16,16 9,0 17,-7 17,-16zm49 0l0 0c0,-10 -7,-17 -16,-17 -10,0 -17,7 -17,17 0,9 7,16 17,16 9,0 16,-7 16,-16zm50 0l0 0c0,-10 -8,-17 -17,-17 -9,0 -16,7 -16,17 0,9 7,16 16,16 9,0 17,-7 17,-16zm49 0l0 0c0,-10 -7,-17 -16,-17 -9,0 -17,7 -17,17 0,9 8,16 17,16 9,0 16,-7 16,-16zm-248 136l0 0c0,-9 -7,-17 -16,-17 -9,0 -17,8 -17,17 0,9 8,16 17,16 9,0 16,-7 16,-16zm50 0l0 0c0,-9 -7,-17 -17,-17 -9,0 -16,8 -16,17 0,9 7,16 16,16 10,0 17,-7 17,-16zm50 0l0 0c0,-9 -8,-17 -17,-17 -9,0 -16,8 -16,17 0,9 7,16 16,16 9,0 17,-7 17,-16zm49 0l0 0c0,-9 -7,-17 -16,-17 -10,0 -17,8 -17,17 0,9 7,16 17,16 9,0 16,-7 16,-16zm50 0l0 0c0,-9 -8,-17 -17,-17 -9,0 -16,8 -16,17 0,9 7,16 16,16 9,0 17,-7 17,-16zm49 0l0 0c0,-9 -7,-17 -16,-17 -9,0 -17,8 -17,17 0,9 8,16 17,16 9,0 16,-7 16,-16z"/>
     <path class="fil2" d="M3921 1047l-57 0c-8,0 -15,-7 -15,-14 0,-8 7,-15 15,-15l57 0c8,0 15,7 15,15 0,7 -7,14 -15,14zm15 52l0 0c0,-8 -7,-15 -15,-15l-57 0c-8,0 -15,7 -15,15 0,7 7,14 15,14l57 0c8,0 15,-7 15,-14zm0 66l0 0c0,-8 -7,-15 -15,-15l-57 0c-8,0 -15,7 -15,15 0,8 7,14 15,14l57 0c8,0 15,-6 15,-14zm0 66l0 0c0,-8 -7,-15 -15,-15l-57 0c-8,0 -15,7 -15,15 0,8 7,14 15,14l57 0c8,0 15,-6 15,-14zm0 66l0 0c0,-8 -7,-14 -15,-14l-57 0c-8,0 -15,6 -15,14 0,8 7,14 15,14l57 0c8,0 15,-6 15,-14zm0 66l0 0c0,-8 -7,-14 -15,-14l-57 0c-8,0 -15,6 -15,14 0,8 7,14 15,14l57 0c8,0 15,-6 15,-14zm0 66l0 0c0,-8 -7,-14 -15,-14l-57 0c-8,0 -15,6 -15,14 0,8 7,14 15,14l57 0c8,0 15,-6 15,-14zm0 66l0 0c0,-8 -7,-14 -15,-14l-57 0c-8,0 -15,6 -15,14 0,8 7,14 15,14l57 0c8,0 15,-6 15,-14zm216 -462l0 0c0,-8 -7,-15 -14,-15l-152 0c-8,0 -14,7 -14,15 0,7 6,14 14,14l152 0c7,0 14,-7 14,-14zm0 66l0 0c0,-8 -7,-15 -14,-15l-152 0c-8,0 -14,7 -14,15 0,7 6,14 14,14l152 0c7,0 14,-7 14,-14zm0 66l0 0c0,-8 -7,-15 -14,-15l-152 0c-8,0 -14,7 -14,15 0,8 6,14 14,14l152 0c7,0 14,-6 14,-14zm0 66l0 0c0,-8 -7,-15 -14,-15l-152 0c-8,0 -14,7 -14,15 0,8 6,14 14,14l152 0c7,0 14,-6 14,-14zm0 66l0 0c0,-8 -7,-14 -14,-14l-152 0c-8,0 -14,6 -14,14 0,8 6,14 14,14l152 0c7,0 14,-6 14,-14zm181 66l0 0c0,-8 -6,-14 -14,-14l-151 0c-8,0 -15,6 -15,14 0,8 7,14 15,14l151 0c8,0 14,-6 14,-14zm0 66l0 0c0,-8 -6,-14 -14,-14l-151 0c-8,0 -15,6 -15,14 0,8 7,14 15,14l151 0c8,0 14,-6 14,-14zm0 66l0 0c0,-8 -6,-14 -14,-14l-151 0c-8,0 -15,6 -15,14 0,8 7,14 15,14l151 0c8,0 14,-6 14,-14zm-114 -462l0 0c0,-10 -8,-17 -17,-17 -9,0 -16,7 -16,17 0,9 7,16 16,16 9,0 17,-7 17,-16zm49 0l0 0c0,-10 -7,-17 -16,-17 -9,0 -17,7 -17,17 0,9 8,16 17,16 9,0 16,-7 16,-16zm50 0l0 0c0,-10 -8,-17 -17,-17 -9,0 -16,7 -16,17 0,9 7,16 16,16 9,0 17,-7 17,-16zm49 0l0 0c0,-10 -7,-17 -16,-17 -9,0 -17,7 -17,17 0,9 8,16 17,16 9,0 16,-7 16,-16zm50 0l0 0c0,-10 -8,-17 -17,-17 -9,0 -16,7 -16,17 0,9 7,16 16,16 9,0 17,-7 17,-16zm49 0l0 0c0,-10 -7,-17 -16,-17 -9,0 -17,7 -17,17 0,9 8,16 17,16 9,0 16,-7 16,-16zm-247 132l0 0c0,-9 -8,-17 -17,-17 -9,0 -16,8 -16,17 0,9 7,16 16,16 9,0 17,-7 17,-16zm49 0l0 0c0,-9 -7,-17 -16,-17 -9,0 -17,8 -17,17 0,9 8,16 17,16 9,0 16,-7 16,-16zm50 0l0 0c0,-9 -8,-17 -17,-17 -9,0 -16,8 -16,17 0,9 7,16 16,16 9,0 17,-7 17,-16zm49 0l0 0c0,-9 -7,-17 -16,-17 -9,0 -17,8 -17,17 0,9 8,16 17,16 9,0 16,-7 16,-16zm50 0l0 0c0,-9 -8,-17 -17,-17 -9,0 -16,8 -16,17 0,9 7,16 16,16 9,0 17,-7 17,-16zm49 0l0 0c0,-9 -7,-17 -16,-17 -9,0 -17,8 -17,17 0,9 8,16 17,16 9,0 16,-7 16,-16zm-78 190l0 0c0,-10 -8,-17 -17,-17 -9,0 -16,7 -16,17 0,9 7,16 16,16 9,0 17,-7 17,-16zm49 0l0 0c0,-10 -7,-17 -16,-17 -9,0 -17,7 -17,17 0,9 8,16 17,16 9,0 16,-7 16,-16zm50 0l0 0c0,-10 -7,-17 -17,-17 -9,0 -16,7 -16,17 0,9 7,16 16,16 10,0 17,-7 17,-16zm50 0l0 0c0,-10 -8,-17 -17,-17 -9,0 -17,7 -17,17 0,9 8,16 17,16 9,0 17,-7 17,-16zm49 0l0 0c0,-10 -7,-17 -16,-17 -10,0 -17,7 -17,17 0,9 7,16 17,16 9,0 16,-7 16,-16zm50 0l0 0c0,-10 -8,-17 -17,-17 -9,0 -16,7 -16,17 0,9 7,16 16,16 9,0 17,-7 17,-16zm-248 136l0 0c0,-9 -8,-17 -17,-17 -9,0 -16,8 -16,17 0,9 7,16 16,16 9,0 17,-7 17,-16zm49 0l0 0c0,-9 -7,-17 -16,-17 -9,0 -17,8 -17,17 0,9 8,16 17,16 9,0 16,-7 16,-16zm50 0l0 0c0,-9 -7,-17 -17,-17 -9,0 -16,8 -16,17 0,9 7,16 16,16 10,0 17,-7 17,-16zm50 0l0 0c0,-9 -8,-17 -17,-17 -9,0 -17,8 -17,17 0,9 8,16 17,16 9,0 17,-7 17,-16zm49 0l0 0c0,-9 -7,-17 -16,-17 -10,0 -17,8 -17,17 0,9 7,16 17,16 9,0 16,-7 16,-16zm50 0l0 0c0,-9 -8,-17 -17,-17 -9,0 -16,8 -16,17 0,9 7,16 16,16 9,0 17,-7 17,-16z"/>
     <path class="fil2" d="M3921 1588l-57 0c-8,0 -15,-6 -15,-14 0,-8 7,-14 15,-14l57 0c8,0 15,6 15,14 0,8 -7,14 -15,14zm15 52l0 0c0,-8 -7,-14 -15,-14l-57 0c-8,0 -15,6 -15,14 0,8 7,14 15,14l57 0c8,0 15,-6 15,-14zm0 66l0 0c0,-8 -7,-14 -15,-14l-57 0c-8,0 -15,6 -15,14 0,8 7,14 15,14l57 0c8,0 15,-6 15,-14zm0 66l0 0c0,-8 -7,-14 -15,-14l-57 0c-8,0 -15,6 -15,14 0,8 7,14 15,14l57 0c8,0 15,-6 15,-14zm0 66l0 0c0,-8 -7,-14 -15,-14l-57 0c-8,0 -15,6 -15,14 0,8 7,14 15,14l57 0c8,0 15,-6 15,-14zm0 66l0 0c0,-8 -7,-14 -15,-14l-57 0c-8,0 -15,6 -15,14 0,8 7,14 15,14l57 0c8,0 15,-6 15,-14zm0 66l0 0c0,-8 -7,-14 -15,-14l-57 0c-8,0 -15,6 -15,14 0,8 7,15 15,15l57 0c8,0 15,-7 15,-15zm0 66l0 0c0,-8 -7,-14 -15,-14l-57 0c-8,0 -15,6 -15,14 0,8 7,15 15,15l57 0c8,0 15,-7 15,-15zm216 -462l0 0c0,-8 -7,-14 -14,-14l-152 0c-8,0 -14,6 -14,14 0,8 6,14 14,14l152 0c7,0 14,-6 14,-14zm0 66l0 0c0,-8 -7,-14 -14,-14l-152 0c-8,0 -14,6 -14,14 0,8 6,14 14,14l152 0c7,0 14,-6 14,-14zm0 66l0 0c0,-8 -7,-14 -14,-14l-152 0c-8,0 -14,6 -14,14 0,8 6,14 14,14l152 0c7,0 14,-6 14,-14zm0 66l0 0c0,-8 -7,-14 -14,-14l-152 0c-8,0 -14,6 -14,14 0,8 6,14 14,14l152 0c7,0 14,-6 14,-14zm0 66l0 0c0,-8 -7,-14 -14,-14l-152 0c-8,0 -14,6 -14,14 0,8 6,14 14,14l152 0c7,0 14,-6 14,-14zm181 66l0 0c0,-8 -6,-14 -14,-14l-151 0c-8,0 -15,6 -15,14 0,8 7,14 15,14l151 0c8,0 14,-6 14,-14zm0 66l0 0c0,-8 -6,-14 -14,-14l-151 0c-8,0 -15,6 -15,14 0,8 7,15 15,15l151 0c8,0 14,-7 14,-15zm0 66l0 0c0,-8 -6,-14 -14,-14l-151 0c-8,0 -15,6 -15,14 0,8 7,15 15,15l151 0c8,0 14,-7 14,-15zm-114 -462l0 0c0,-9 -8,-17 -17,-17 -9,0 -16,8 -16,17 0,9 7,16 16,16 9,0 17,-7 17,-16zm49 0l0 0c0,-9 -7,-17 -16,-17 -9,0 -17,8 -17,17 0,9 8,16 17,16 9,0 16,-7 16,-16zm50 0l0 0c0,-9 -8,-17 -17,-17 -9,0 -16,8 -16,17 0,9 7,16 16,16 9,0 17,-7 17,-16zm49 0l0 0c0,-9 -7,-17 -16,-17 -9,0 -17,8 -17,17 0,9 8,16 17,16 9,0 16,-7 16,-16zm50 0l0 0c0,-9 -8,-17 -17,-17 -9,0 -16,8 -16,17 0,9 7,16 16,16 9,0 17,-7 17,-16zm49 0l0 0c0,-9 -7,-17 -16,-17 -9,0 -17,8 -17,17 0,9 8,16 17,16 9,0 16,-7 16,-16zm-247 132l0 0c0,-9 -8,-16 -17,-16 -9,0 -16,7 -16,16 0,9 7,17 16,17 9,0 17,-8 17,-17zm49 0l0 0c0,-9 -7,-16 -16,-16 -9,0 -17,7 -17,16 0,9 8,17 17,17 9,0 16,-8 16,-17zm50 0l0 0c0,-9 -8,-16 -17,-16 -9,0 -16,7 -16,16 0,9 7,17 16,17 9,0 17,-8 17,-17zm49 0l0 0c0,-9 -7,-16 -16,-16 -9,0 -17,7 -17,16 0,9 8,17 17,17 9,0 16,-8 16,-17zm50 0l0 0c0,-9 -8,-16 -17,-16 -9,0 -16,7 -16,16 0,9 7,17 16,17 9,0 17,-8 17,-17zm49 0l0 0c0,-9 -7,-16 -16,-16 -9,0 -17,7 -17,16 0,9 8,17 17,17 9,0 16,-8 16,-17zm-78 190l0 0c0,-9 -8,-17 -17,-17 -9,0 -16,8 -16,17 0,9 7,16 16,16 9,0 17,-7 17,-16zm49 0l0 0c0,-9 -7,-17 -16,-17 -9,0 -17,8 -17,17 0,9 8,16 17,16 9,0 16,-7 16,-16zm50 0l0 0c0,-9 -7,-17 -17,-17 -9,0 -16,8 -16,17 0,9 7,16 16,16 10,0 17,-7 17,-16zm50 0l0 0c0,-9 -8,-17 -17,-17 -9,0 -17,8 -17,17 0,9 8,16 17,16 9,0 17,-7 17,-16zm49 0l0 0c0,-9 -7,-17 -16,-17 -10,0 -17,8 -17,17 0,9 7,16 17,16 9,0 16,-7 16,-16zm50 0l0 0c0,-9 -8,-17 -17,-17 -9,0 -16,8 -16,17 0,9 7,16 16,16 9,0 17,-7 17,-16zm-248 136l0 0c0,-9 -8,-16 -17,-16 -9,0 -16,7 -16,16 0,9 7,17 16,17 9,0 17,-8 17,-17zm49 0l0 0c0,-9 -7,-16 -16,-16 -9,0 -17,7 -17,16 0,9 8,17 17,17 9,0 16,-8 16,-17zm50 0l0 0c0,-9 -7,-16 -17,-16 -9,0 -16,7 -16,16 0,9 7,17 16,17 10,0 17,-8 17,-17zm50 0l0 0c0,-9 -8,-16 -17,-16 -9,0 -17,7 -17,16 0,9 8,17 17,17 9,0 17,-8 17,-17zm49 0l0 0c0,-9 -7,-16 -16,-16 -10,0 -17,7 -17,16 0,9 7,17 17,17 9,0 16,-8 16,-17zm50 0l0 0c0,-9 -8,-16 -17,-16 -9,0 -16,7 -16,16 0,9 7,17 16,17 9,0 17,-8 17,-17z"/>
    </g>
    <g>
     <path class="fil2" d="M1080 2248l-58 0c-8,0 -14,-7 -14,-15 0,-8 6,-14 14,-14l58 0c8,0 14,6 14,14 0,8 -6,15 -14,15zm14 51l0 0c0,-7 -6,-14 -14,-14l-58 0c-8,0 -14,7 -14,14 0,8 6,15 14,15l58 0c8,0 14,-7 14,-15zm0 66l0 0c0,-7 -6,-14 -14,-14l-58 0c-8,0 -14,7 -14,14 0,8 6,15 14,15l58 0c8,0 14,-7 14,-15zm0 67l0 0c0,-8 -6,-15 -14,-15l-58 0c-8,0 -14,7 -14,15 0,7 6,14 14,14l58 0c8,0 14,-7 14,-14zm0 66l0 0c0,-8 -6,-15 -14,-15l-58 0c-8,0 -14,7 -14,15 0,7 6,14 14,14l58 0c8,0 14,-7 14,-14zm0 66l0 0c0,-8 -6,-15 -14,-15l-58 0c-8,0 -14,7 -14,15 0,8 6,14 14,14l58 0c8,0 14,-6 14,-14zm0 66l0 0c0,-8 -6,-15 -14,-15l-58 0c-8,0 -14,7 -14,15 0,8 6,14 14,14l58 0c8,0 14,-6 14,-14zm0 66l0 0c0,-8 -6,-14 -14,-14l-58 0c-8,0 -14,6 -14,14 0,8 6,14 14,14l58 0c8,0 14,-6 14,-14zm216 -463l0 0c0,-8 -6,-14 -14,-14l-152 0c-7,0 -14,6 -14,14 0,8 7,15 14,15l152 0c8,0 14,-7 14,-15zm0 66l0 0c0,-7 -6,-14 -14,-14l-152 0c-7,0 -14,7 -14,14 0,8 7,15 14,15l152 0c8,0 14,-7 14,-15zm0 66l0 0c0,-7 -6,-14 -14,-14l-152 0c-7,0 -14,7 -14,14 0,8 7,15 14,15l152 0c8,0 14,-7 14,-15zm0 67l0 0c0,-8 -6,-15 -14,-15l-152 0c-7,0 -14,7 -14,15 0,7 7,14 14,14l152 0c8,0 14,-7 14,-14zm0 66l0 0c0,-8 -6,-15 -14,-15l-152 0c-7,0 -14,7 -14,15 0,7 7,14 14,14l152 0c8,0 14,-7 14,-14zm182 66l0 0c0,-8 -6,-15 -14,-15l-152 0c-8,0 -14,7 -14,15 0,8 6,14 14,14l152 0c8,0 14,-6 14,-14zm0 66l0 0c0,-8 -6,-15 -14,-15l-152 0c-8,0 -14,7 -14,15 0,8 6,14 14,14l152 0c8,0 14,-6 14,-14zm0 66l0 0c0,-8 -6,-14 -14,-14l-152 0c-8,0 -14,6 -14,14 0,8 6,14 14,14l152 0c8,0 14,-6 14,-14zm-115 -463l0 0c0,-9 -7,-16 -16,-16 -9,0 -17,7 -17,16 0,9 8,17 17,17 9,0 16,-8 16,-17zm50 0l0 0c0,-9 -8,-16 -17,-16 -9,0 -16,7 -16,16 0,9 7,17 16,17 9,0 17,-8 17,-17zm49 0l0 0c0,-9 -7,-16 -16,-16 -9,0 -17,7 -17,16 0,9 8,17 17,17 9,0 16,-8 16,-17zm50 0l0 0c0,-9 -8,-16 -17,-16 -9,0 -16,7 -16,16 0,9 7,17 16,17 9,0 17,-8 17,-17zm49 0l0 0c0,-9 -7,-16 -16,-16 -9,0 -17,7 -17,16 0,9 8,17 17,17 9,0 16,-8 16,-17zm50 0l0 0c0,-9 -8,-16 -17,-16 -9,0 -16,7 -16,16 0,9 7,17 16,17 9,0 17,-8 17,-17zm-248 132l0 0c0,-9 -7,-16 -16,-16 -9,0 -17,7 -17,16 0,10 8,17 17,17 9,0 16,-7 16,-17zm50 0l0 0c0,-9 -8,-16 -17,-16 -9,0 -16,7 -16,16 0,10 7,17 16,17 9,0 17,-7 17,-17zm49 0l0 0c0,-9 -7,-16 -16,-16 -9,0 -17,7 -17,16 0,10 8,17 17,17 9,0 16,-7 16,-17zm50 0l0 0c0,-9 -8,-16 -17,-16 -9,0 -16,7 -16,16 0,10 7,17 16,17 9,0 17,-7 17,-17zm49 0l0 0c0,-9 -7,-16 -16,-16 -9,0 -17,7 -17,16 0,10 8,17 17,17 9,0 16,-7 16,-17zm50 0l0 0c0,-9 -8,-16 -17,-16 -9,0 -16,7 -16,16 0,10 7,17 16,17 9,0 17,-7 17,-17zm-79 190l0 0c0,-9 -7,-16 -16,-16 -9,0 -17,7 -17,16 0,10 8,17 17,17 9,0 16,-7 16,-17zm50 0l0 0c0,-9 -7,-16 -17,-16 -9,0 -16,7 -16,16 0,10 7,17 16,17 10,0 17,-7 17,-17zm50 0l0 0c0,-9 -8,-16 -17,-16 -9,0 -17,7 -17,16 0,10 8,17 17,17 9,0 17,-7 17,-17zm49 0l0 0c0,-9 -7,-16 -16,-16 -10,0 -17,7 -17,16 0,10 7,17 17,17 9,0 16,-7 16,-17zm50 0l0 0c0,-9 -8,-16 -17,-16 -9,0 -16,7 -16,16 0,10 7,17 16,17 9,0 17,-7 17,-17zm49 0l0 0c0,-9 -7,-16 -16,-16 -10,0 -17,7 -17,16 0,10 7,17 17,17 9,0 16,-7 16,-17zm-248 137l0 0c0,-9 -7,-17 -16,-17 -9,0 -17,8 -17,17 0,9 8,16 17,16 9,0 16,-7 16,-16zm50 0l0 0c0,-9 -7,-17 -17,-17 -9,0 -16,8 -16,17 0,9 7,16 16,16 10,0 17,-7 17,-16zm50 0l0 0c0,-9 -8,-17 -17,-17 -9,0 -17,8 -17,17 0,9 8,16 17,16 9,0 17,-7 17,-16zm49 0l0 0c0,-9 -7,-17 -16,-17 -10,0 -17,8 -17,17 0,9 7,16 17,16 9,0 16,-7 16,-16zm50 0l0 0c0,-9 -8,-17 -17,-17 -9,0 -16,8 -16,17 0,9 7,16 16,16 9,0 17,-7 17,-16zm49 0l0 0c0,-9 -7,-17 -16,-17 -10,0 -17,8 -17,17 0,9 7,16 17,16 9,0 16,-7 16,-16z"/>
     <path class="fil2" d="M1080 2776l-58 0c-8,0 -14,-6 -14,-14 0,-8 6,-14 14,-14l58 0c8,0 14,6 14,14 0,8 -6,14 -14,14zm14 52l0 0c0,-8 -6,-14 -14,-14l-58 0c-8,0 -14,6 -14,14 0,8 6,14 14,14l58 0c8,0 14,-6 14,-14zm0 66l0 0c0,-8 -6,-14 -14,-14l-58 0c-8,0 -14,6 -14,14 0,8 6,14 14,14l58 0c8,0 14,-6 14,-14zm0 66l0 0c0,-8 -6,-14 -14,-14l-58 0c-8,0 -14,6 -14,14 0,8 6,14 14,14l58 0c8,0 14,-6 14,-14zm0 66l0 0c0,-8 -6,-14 -14,-14l-58 0c-8,0 -14,6 -14,14 0,8 6,14 14,14l58 0c8,0 14,-6 14,-14zm0 66l0 0c0,-8 -6,-14 -14,-14l-58 0c-8,0 -14,6 -14,14 0,8 6,15 14,15l58 0c8,0 14,-7 14,-15zm0 66l0 0c0,-8 -6,-14 -14,-14l-58 0c-8,0 -14,6 -14,14 0,8 6,15 14,15l58 0c8,0 14,-7 14,-15zm0 66l0 0c0,-8 -6,-14 -14,-14l-58 0c-8,0 -14,6 -14,14 0,8 6,15 14,15l58 0c8,0 14,-7 14,-15zm216 -462l0 0c0,-8 -6,-14 -14,-14l-152 0c-7,0 -14,6 -14,14 0,8 7,14 14,14l152 0c8,0 14,-6 14,-14zm0 66l0 0c0,-8 -6,-14 -14,-14l-152 0c-7,0 -14,6 -14,14 0,8 7,14 14,14l152 0c8,0 14,-6 14,-14zm0 66l0 0c0,-8 -6,-14 -14,-14l-152 0c-7,0 -14,6 -14,14 0,8 7,14 14,14l152 0c8,0 14,-6 14,-14zm0 66l0 0c0,-8 -6,-14 -14,-14l-152 0c-7,0 -14,6 -14,14 0,8 7,14 14,14l152 0c8,0 14,-6 14,-14zm0 66l0 0c0,-8 -6,-14 -14,-14l-152 0c-7,0 -14,6 -14,14 0,8 7,14 14,14l152 0c8,0 14,-6 14,-14zm182 66l0 0c0,-8 -6,-14 -14,-14l-152 0c-8,0 -14,6 -14,14 0,8 6,15 14,15l152 0c8,0 14,-7 14,-15zm0 66l0 0c0,-8 -6,-14 -14,-14l-152 0c-8,0 -14,6 -14,14 0,8 6,15 14,15l152 0c8,0 14,-7 14,-15zm0 66l0 0c0,-8 -6,-14 -14,-14l-152 0c-8,0 -14,6 -14,14 0,8 6,15 14,15l152 0c8,0 14,-7 14,-15zm-115 -462l0 0c0,-9 -7,-17 -16,-17 -9,0 -17,8 -17,17 0,9 8,16 17,16 9,0 16,-7 16,-16zm50 0l0 0c0,-9 -8,-17 -17,-17 -9,0 -16,8 -16,17 0,9 7,16 16,16 9,0 17,-7 17,-16zm49 0l0 0c0,-9 -7,-17 -16,-17 -9,0 -17,8 -17,17 0,9 8,16 17,16 9,0 16,-7 16,-16zm50 0l0 0c0,-9 -8,-17 -17,-17 -9,0 -16,8 -16,17 0,9 7,16 16,16 9,0 17,-7 17,-16zm49 0l0 0c0,-9 -7,-17 -16,-17 -9,0 -17,8 -17,17 0,9 8,16 17,16 9,0 16,-7 16,-16zm50 0l0 0c0,-9 -8,-17 -17,-17 -9,0 -16,8 -16,17 0,9 7,16 16,16 9,0 17,-7 17,-16zm-248 132l0 0c0,-9 -7,-16 -16,-16 -9,0 -17,7 -17,16 0,9 8,17 17,17 9,0 16,-8 16,-17zm50 0l0 0c0,-9 -8,-16 -17,-16 -9,0 -16,7 -16,16 0,9 7,17 16,17 9,0 17,-8 17,-17zm49 0l0 0c0,-9 -7,-16 -16,-16 -9,0 -17,7 -17,16 0,9 8,17 17,17 9,0 16,-8 16,-17zm50 0l0 0c0,-9 -8,-16 -17,-16 -9,0 -16,7 -16,16 0,9 7,17 16,17 9,0 17,-8 17,-17zm49 0l0 0c0,-9 -7,-16 -16,-16 -9,0 -17,7 -17,16 0,9 8,17 17,17 9,0 16,-8 16,-17zm50 0l0 0c0,-9 -8,-16 -17,-16 -9,0 -16,7 -16,16 0,9 7,17 16,17 9,0 17,-8 17,-17zm-79 190l0 0c0,-9 -7,-17 -16,-17 -9,0 -17,8 -17,17 0,9 8,16 17,16 9,0 16,-7 16,-16zm50 0l0 0c0,-9 -7,-17 -17,-17 -9,0 -16,8 -16,17 0,9 7,16 16,16 10,0 17,-7 17,-16zm50 0l0 0c0,-9 -8,-17 -17,-17 -9,0 -17,8 -17,17 0,9 8,16 17,16 9,0 17,-7 17,-16zm49 0l0 0c0,-9 -7,-17 -16,-17 -10,0 -17,8 -17,17 0,9 7,16 17,16 9,0 16,-7 16,-16zm50 0l0 0c0,-9 -8,-17 -17,-17 -9,0 -16,8 -16,17 0,9 7,16 16,16 9,0 17,-7 17,-16zm49 0l0 0c0,-9 -7,-17 -16,-17 -10,0 -17,8 -17,17 0,9 7,16 17,16 9,0 16,-7 16,-16zm-248 136l0 0c0,-9 -7,-16 -16,-16 -9,0 -17,7 -17,16 0,9 8,17 17,17 9,0 16,-8 16,-17zm50 0l0 0c0,-9 -7,-16 -17,-16 -9,0 -16,7 -16,16 0,9 7,17 16,17 10,0 17,-8 17,-17zm50 0l0 0c0,-9 -8,-16 -17,-16 -9,0 -17,7 -17,16 0,9 8,17 17,17 9,0 17,-8 17,-17zm49 0l0 0c0,-9 -7,-16 -16,-16 -10,0 -17,7 -17,16 0,9 7,17 17,17 9,0 16,-8 16,-17zm50 0l0 0c0,-9 -8,-16 -17,-16 -9,0 -16,7 -16,16 0,9 7,17 16,17 9,0 17,-8 17,-17zm49 0l0 0c0,-9 -7,-16 -16,-16 -10,0 -17,7 -17,16 0,9 7,17 17,17 9,0 16,-8 16,-17z"/>
     <path class="fil2" d="M1080 3318l-58 0c-8,0 -14,-7 -14,-15 0,-8 6,-14 14,-14l58 0c8,0 14,6 14,14 0,8 -6,15 -14,15zm14 51l0 0c0,-8 -6,-14 -14,-14l-58 0c-8,0 -14,6 -14,14 0,8 6,15 14,15l58 0c8,0 14,-7 14,-15zm0 66l0 0c0,-7 -6,-14 -14,-14l-58 0c-8,0 -14,7 -14,14 0,8 6,15 14,15l58 0c8,0 14,-7 14,-15zm0 66l0 0c0,-7 -6,-14 -14,-14l-58 0c-8,0 -14,7 -14,14 0,8 6,15 14,15l58 0c8,0 14,-7 14,-15zm0 67l0 0c0,-8 -6,-15 -14,-15l-58 0c-8,0 -14,7 -14,15 0,7 6,14 14,14l58 0c8,0 14,-7 14,-14zm0 66l0 0c0,-8 -6,-15 -14,-15l-58 0c-8,0 -14,7 -14,15 0,7 6,14 14,14l58 0c8,0 14,-7 14,-14zm0 66l0 0c0,-8 -6,-15 -14,-15l-58 0c-8,0 -14,7 -14,15 0,8 6,14 14,14l58 0c8,0 14,-6 14,-14zm0 66l0 0c0,-8 -6,-15 -14,-15l-58 0c-8,0 -14,7 -14,15 0,8 6,14 14,14l58 0c8,0 14,-6 14,-14zm216 -463l0 0c0,-8 -6,-14 -14,-14l-152 0c-7,0 -14,6 -14,14 0,8 7,15 14,15l152 0c8,0 14,-7 14,-15zm0 66l0 0c0,-8 -6,-14 -14,-14l-152 0c-7,0 -14,6 -14,14 0,8 7,15 14,15l152 0c8,0 14,-7 14,-15zm0 66l0 0c0,-7 -6,-14 -14,-14l-152 0c-7,0 -14,7 -14,14 0,8 7,15 14,15l152 0c8,0 14,-7 14,-15zm0 66l0 0c0,-7 -6,-14 -14,-14l-152 0c-7,0 -14,7 -14,14 0,8 7,15 14,15l152 0c8,0 14,-7 14,-15zm0 67l0 0c0,-8 -6,-15 -14,-15l-152 0c-7,0 -14,7 -14,15 0,7 7,14 14,14l152 0c8,0 14,-7 14,-14zm182 66l0 0c0,-8 -6,-15 -14,-15l-152 0c-8,0 -14,7 -14,15 0,7 6,14 14,14l152 0c8,0 14,-7 14,-14zm0 66l0 0c0,-8 -6,-15 -14,-15l-152 0c-8,0 -14,7 -14,15 0,8 6,14 14,14l152 0c8,0 14,-6 14,-14zm0 66l0 0c0,-8 -6,-15 -14,-15l-152 0c-8,0 -14,7 -14,15 0,8 6,14 14,14l152 0c8,0 14,-6 14,-14zm-115 -463l0 0c0,-9 -7,-16 -16,-16 -9,0 -17,7 -17,16 0,9 8,17 17,17 9,0 16,-8 16,-17zm50 0l0 0c0,-9 -8,-16 -17,-16 -9,0 -16,7 -16,16 0,9 7,17 16,17 9,0 17,-8 17,-17zm49 0l0 0c0,-9 -7,-16 -16,-16 -9,0 -17,7 -17,16 0,9 8,17 17,17 9,0 16,-8 16,-17zm50 0l0 0c0,-9 -8,-16 -17,-16 -9,0 -16,7 -16,16 0,9 7,17 16,17 9,0 17,-8 17,-17zm49 0l0 0c0,-9 -7,-16 -16,-16 -9,0 -17,7 -17,16 0,9 8,17 17,17 9,0 16,-8 16,-17zm50 0l0 0c0,-9 -8,-16 -17,-16 -9,0 -16,7 -16,16 0,9 7,17 16,17 9,0 17,-8 17,-17zm-248 132l0 0c0,-9 -7,-16 -16,-16 -9,0 -17,7 -17,16 0,10 8,17 17,17 9,0 16,-7 16,-17zm50 0l0 0c0,-9 -8,-16 -17,-16 -9,0 -16,7 -16,16 0,10 7,17 16,17 9,0 17,-7 17,-17zm49 0l0 0c0,-9 -7,-16 -16,-16 -9,0 -17,7 -17,16 0,10 8,17 17,17 9,0 16,-7 16,-17zm50 0l0 0c0,-9 -8,-16 -17,-16 -9,0 -16,7 -16,16 0,10 7,17 16,17 9,0 17,-7 17,-17zm49 0l0 0c0,-9 -7,-16 -16,-16 -9,0 -17,7 -17,16 0,10 8,17 17,17 9,0 16,-7 16,-17zm50 0l0 0c0,-9 -8,-16 -17,-16 -9,0 -16,7 -16,16 0,10 7,17 16,17 9,0 17,-7 17,-17zm-79 190l0 0c0,-9 -7,-16 -16,-16 -9,0 -17,7 -17,16 0,9 8,17 17,17 9,0 16,-8 16,-17zm50 0l0 0c0,-9 -7,-16 -17,-16 -9,0 -16,7 -16,16 0,9 7,17 16,17 10,0 17,-8 17,-17zm50 0l0 0c0,-9 -8,-16 -17,-16 -9,0 -17,7 -17,16 0,9 8,17 17,17 9,0 17,-8 17,-17zm49 0l0 0c0,-9 -7,-16 -16,-16 -10,0 -17,7 -17,16 0,9 7,17 17,17 9,0 16,-8 16,-17zm50 0l0 0c0,-9 -8,-16 -17,-16 -9,0 -16,7 -16,16 0,9 7,17 16,17 9,0 17,-8 17,-17zm49 0l0 0c0,-9 -7,-16 -16,-16 -10,0 -17,7 -17,16 0,9 7,17 17,17 9,0 16,-8 16,-17zm-248 137l0 0c0,-10 -7,-17 -16,-17 -9,0 -17,7 -17,17 0,9 8,16 17,16 9,0 16,-7 16,-16zm50 0l0 0c0,-10 -7,-17 -17,-17 -9,0 -16,7 -16,17 0,9 7,16 16,16 10,0 17,-7 17,-16zm50 0l0 0c0,-10 -8,-17 -17,-17 -9,0 -17,7 -17,17 0,9 8,16 17,16 9,0 17,-7 17,-16zm49 0l0 0c0,-10 -7,-17 -16,-17 -10,0 -17,7 -17,17 0,9 7,16 17,16 9,0 16,-7 16,-16zm50 0l0 0c0,-10 -8,-17 -17,-17 -9,0 -16,7 -16,17 0,9 7,16 16,16 9,0 17,-7 17,-16zm49 0l0 0c0,-10 -7,-17 -16,-17 -10,0 -17,7 -17,17 0,9 7,16 17,16 9,0 16,-7 16,-16z"/>
     <path class="fil2" d="M1967 2248l-58 0c-7,0 -14,-7 -14,-15 0,-8 7,-14 14,-14l58 0c8,0 15,6 15,14 0,8 -7,15 -15,15zm15 51l0 0c0,-7 -7,-14 -15,-14l-58 0c-7,0 -14,7 -14,14 0,8 7,15 14,15l58 0c8,0 15,-7 15,-15zm0 66l0 0c0,-7 -7,-14 -15,-14l-58 0c-7,0 -14,7 -14,14 0,8 7,15 14,15l58 0c8,0 15,-7 15,-15zm0 67l0 0c0,-8 -7,-15 -15,-15l-58 0c-7,0 -14,7 -14,15 0,7 7,14 14,14l58 0c8,0 15,-7 15,-14zm0 66l0 0c0,-8 -7,-15 -15,-15l-58 0c-7,0 -14,7 -14,15 0,7 7,14 14,14l58 0c8,0 15,-7 15,-14zm0 66l0 0c0,-8 -7,-15 -15,-15l-58 0c-7,0 -14,7 -14,15 0,8 7,14 14,14l58 0c8,0 15,-6 15,-14zm0 66l0 0c0,-8 -7,-15 -15,-15l-58 0c-7,0 -14,7 -14,15 0,8 7,14 14,14l58 0c8,0 15,-6 15,-14zm0 66l0 0c0,-8 -7,-14 -15,-14l-58 0c-7,0 -14,6 -14,14 0,8 7,14 14,14l58 0c8,0 15,-6 15,-14zm216 -463l0 0c0,-8 -7,-14 -14,-14l-152 0c-8,0 -14,6 -14,14 0,8 6,15 14,15l152 0c7,0 14,-7 14,-15zm0 66l0 0c0,-7 -7,-14 -14,-14l-152 0c-8,0 -14,7 -14,14 0,8 6,15 14,15l152 0c7,0 14,-7 14,-15zm0 66l0 0c0,-7 -7,-14 -14,-14l-152 0c-8,0 -14,7 -14,14 0,8 6,15 14,15l152 0c7,0 14,-7 14,-15zm0 67l0 0c0,-8 -7,-15 -14,-15l-152 0c-8,0 -14,7 -14,15 0,7 6,14 14,14l152 0c7,0 14,-7 14,-14zm0 66l0 0c0,-8 -7,-15 -14,-15l-152 0c-8,0 -14,7 -14,15 0,7 6,14 14,14l152 0c7,0 14,-7 14,-14zm181 66l0 0c0,-8 -6,-15 -14,-15l-152 0c-7,0 -14,7 -14,15 0,8 7,14 14,14l152 0c8,0 14,-6 14,-14zm0 66l0 0c0,-8 -6,-15 -14,-15l-152 0c-7,0 -14,7 -14,15 0,8 7,14 14,14l152 0c8,0 14,-6 14,-14zm0 66l0 0c0,-8 -6,-14 -14,-14l-152 0c-7,0 -14,6 -14,14 0,8 7,14 14,14l152 0c8,0 14,-6 14,-14zm-114 -463l0 0c0,-9 -8,-16 -17,-16 -9,0 -16,7 -16,16 0,9 7,17 16,17 9,0 17,-8 17,-17zm49 0l0 0c0,-9 -7,-16 -16,-16 -10,0 -17,7 -17,16 0,9 7,17 17,17 9,0 16,-8 16,-17zm50 0l0 0c0,-9 -8,-16 -17,-16 -9,0 -16,7 -16,16 0,9 7,17 16,17 9,0 17,-8 17,-17zm49 0l0 0c0,-9 -7,-16 -16,-16 -9,0 -17,7 -17,16 0,9 8,17 17,17 9,0 16,-8 16,-17zm50 0l0 0c0,-9 -8,-16 -17,-16 -9,0 -16,7 -16,16 0,9 7,17 16,17 9,0 17,-8 17,-17zm49 0l0 0c0,-9 -7,-16 -16,-16 -9,0 -17,7 -17,16 0,9 8,17 17,17 9,0 16,-8 16,-17zm-247 132l0 0c0,-9 -8,-16 -17,-16 -9,0 -16,7 -16,16 0,10 7,17 16,17 9,0 17,-7 17,-17zm49 0l0 0c0,-9 -7,-16 -16,-16 -10,0 -17,7 -17,16 0,10 7,17 17,17 9,0 16,-7 16,-17zm50 0l0 0c0,-9 -8,-16 -17,-16 -9,0 -16,7 -16,16 0,10 7,17 16,17 9,0 17,-7 17,-17zm49 0l0 0c0,-9 -7,-16 -16,-16 -9,0 -17,7 -17,16 0,10 8,17 17,17 9,0 16,-7 16,-17zm50 0l0 0c0,-9 -8,-16 -17,-16 -9,0 -16,7 -16,16 0,10 7,17 16,17 9,0 17,-7 17,-17zm49 0l0 0c0,-9 -7,-16 -16,-16 -9,0 -17,7 -17,16 0,10 8,17 17,17 9,0 16,-7 16,-17zm-78 190l0 0c0,-9 -8,-16 -17,-16 -9,0 -16,7 -16,16 0,10 7,17 16,17 9,0 17,-7 17,-17zm49 0l0 0c0,-9 -7,-16 -16,-16 -9,0 -17,7 -17,16 0,10 8,17 17,17 9,0 16,-7 16,-17zm50 0l0 0c0,-9 -7,-16 -17,-16 -9,0 -16,7 -16,16 0,10 7,17 16,17 10,0 17,-7 17,-17zm49 0l0 0c0,-9 -7,-16 -16,-16 -9,0 -17,7 -17,16 0,10 8,17 17,17 9,0 16,-7 16,-17zm50 0l0 0c0,-9 -7,-16 -17,-16 -9,0 -16,7 -16,16 0,10 7,17 16,17 10,0 17,-7 17,-17zm50 0l0 0c0,-9 -8,-16 -17,-16 -9,0 -16,7 -16,16 0,10 7,17 16,17 9,0 17,-7 17,-17zm-248 137l0 0c0,-9 -8,-17 -17,-17 -9,0 -16,8 -16,17 0,9 7,16 16,16 9,0 17,-7 17,-16zm49 0l0 0c0,-9 -7,-17 -16,-17 -9,0 -17,8 -17,17 0,9 8,16 17,16 9,0 16,-7 16,-16zm50 0l0 0c0,-9 -7,-17 -17,-17 -9,0 -16,8 -16,17 0,9 7,16 16,16 10,0 17,-7 17,-16zm49 0l0 0c0,-9 -7,-17 -16,-17 -9,0 -17,8 -17,17 0,9 8,16 17,16 9,0 16,-7 16,-16zm50 0l0 0c0,-9 -7,-17 -17,-17 -9,0 -16,8 -16,17 0,9 7,16 16,16 10,0 17,-7 17,-16zm50 0l0 0c0,-9 -8,-17 -17,-17 -9,0 -16,8 -16,17 0,9 7,16 16,16 9,0 17,-7 17,-16z"/>
     <path class="fil2" d="M1967 2789l-58 0c-7,0 -14,-6 -14,-14 0,-8 7,-15 14,-15l58 0c8,0 15,7 15,15 0,8 -7,14 -15,14zm15 52l0 0c0,-8 -7,-14 -15,-14l-58 0c-7,0 -14,6 -14,14 0,8 7,14 14,14l58 0c8,0 15,-6 15,-14zm0 66l0 0c0,-8 -7,-14 -15,-14l-58 0c-7,0 -14,6 -14,14 0,8 7,14 14,14l58 0c8,0 15,-6 15,-14zm0 66l0 0c0,-8 -7,-14 -15,-14l-58 0c-7,0 -14,6 -14,14 0,8 7,14 14,14l58 0c8,0 15,-6 15,-14zm0 66l0 0c0,-8 -7,-14 -15,-14l-58 0c-7,0 -14,6 -14,14 0,8 7,14 14,14l58 0c8,0 15,-6 15,-14zm0 66l0 0c0,-8 -7,-14 -15,-14l-58 0c-7,0 -14,6 -14,14 0,8 7,14 14,14l58 0c8,0 15,-6 15,-14zm0 66l0 0c0,-8 -7,-14 -15,-14l-58 0c-7,0 -14,6 -14,14 0,8 7,14 14,14l58 0c8,0 15,-6 15,-14zm0 66l0 0c0,-8 -7,-14 -15,-14l-58 0c-7,0 -14,6 -14,14 0,8 7,14 14,14l58 0c8,0 15,-6 15,-14zm216 -462l0 0c0,-8 -7,-15 -14,-15l-152 0c-8,0 -14,7 -14,15 0,8 6,14 14,14l152 0c7,0 14,-6 14,-14zm0 66l0 0c0,-8 -7,-14 -14,-14l-152 0c-8,0 -14,6 -14,14 0,8 6,14 14,14l152 0c7,0 14,-6 14,-14zm0 66l0 0c0,-8 -7,-14 -14,-14l-152 0c-8,0 -14,6 -14,14 0,8 6,14 14,14l152 0c7,0 14,-6 14,-14zm0 66l0 0c0,-8 -7,-14 -14,-14l-152 0c-8,0 -14,6 -14,14 0,8 6,14 14,14l152 0c7,0 14,-6 14,-14zm0 66l0 0c0,-8 -7,-14 -14,-14l-152 0c-8,0 -14,6 -14,14 0,8 6,14 14,14l152 0c7,0 14,-6 14,-14zm181 66l0 0c0,-8 -6,-14 -14,-14l-152 0c-7,0 -14,6 -14,14 0,8 7,14 14,14l152 0c8,0 14,-6 14,-14zm0 66l0 0c0,-8 -6,-14 -14,-14l-152 0c-7,0 -14,6 -14,14 0,8 7,14 14,14l152 0c8,0 14,-6 14,-14zm0 66l0 0c0,-8 -6,-14 -14,-14l-152 0c-7,0 -14,6 -14,14 0,8 7,14 14,14l152 0c8,0 14,-6 14,-14zm-114 -462l0 0c0,-9 -8,-17 -17,-17 -9,0 -16,8 -16,17 0,9 7,16 16,16 9,0 17,-7 17,-16zm49 0l0 0c0,-9 -7,-17 -16,-17 -10,0 -17,8 -17,17 0,9 7,16 17,16 9,0 16,-7 16,-16zm50 0l0 0c0,-9 -8,-17 -17,-17 -9,0 -16,8 -16,17 0,9 7,16 16,16 9,0 17,-7 17,-16zm49 0l0 0c0,-9 -7,-17 -16,-17 -9,0 -17,8 -17,17 0,9 8,16 17,16 9,0 16,-7 16,-16zm50 0l0 0c0,-9 -8,-17 -17,-17 -9,0 -16,8 -16,17 0,9 7,16 16,16 9,0 17,-7 17,-16zm49 0l0 0c0,-9 -7,-17 -16,-17 -9,0 -17,8 -17,17 0,9 8,16 17,16 9,0 16,-7 16,-16zm-247 132l0 0c0,-9 -8,-17 -17,-17 -9,0 -16,8 -16,17 0,9 7,16 16,16 9,0 17,-7 17,-16zm49 0l0 0c0,-9 -7,-17 -16,-17 -10,0 -17,8 -17,17 0,9 7,16 17,16 9,0 16,-7 16,-16zm50 0l0 0c0,-9 -8,-17 -17,-17 -9,0 -16,8 -16,17 0,9 7,16 16,16 9,0 17,-7 17,-16zm49 0l0 0c0,-9 -7,-17 -16,-17 -9,0 -17,8 -17,17 0,9 8,16 17,16 9,0 16,-7 16,-16zm50 0l0 0c0,-9 -8,-17 -17,-17 -9,0 -16,8 -16,17 0,9 7,16 16,16 9,0 17,-7 17,-16zm49 0l0 0c0,-9 -7,-17 -16,-17 -9,0 -17,8 -17,17 0,9 8,16 17,16 9,0 16,-7 16,-16zm-78 190l0 0c0,-9 -8,-17 -17,-17 -9,0 -16,8 -16,17 0,9 7,16 16,16 9,0 17,-7 17,-16zm49 0l0 0c0,-9 -7,-17 -16,-17 -9,0 -17,8 -17,17 0,9 8,16 17,16 9,0 16,-7 16,-16zm50 0l0 0c0,-9 -7,-17 -17,-17 -9,0 -16,8 -16,17 0,9 7,16 16,16 10,0 17,-7 17,-16zm49 0l0 0c0,-9 -7,-17 -16,-17 -9,0 -17,8 -17,17 0,9 8,16 17,16 9,0 16,-7 16,-16zm50 0l0 0c0,-9 -7,-17 -17,-17 -9,0 -16,8 -16,17 0,9 7,16 16,16 10,0 17,-7 17,-16zm50 0l0 0c0,-9 -8,-17 -17,-17 -9,0 -16,8 -16,17 0,9 7,16 16,16 9,0 17,-7 17,-16zm-248 136l0 0c0,-9 -8,-17 -17,-17 -9,0 -16,8 -16,17 0,9 7,17 16,17 9,0 17,-8 17,-17zm49 0l0 0c0,-9 -7,-17 -16,-17 -9,0 -17,8 -17,17 0,9 8,17 17,17 9,0 16,-8 16,-17zm50 0l0 0c0,-9 -7,-17 -17,-17 -9,0 -16,8 -16,17 0,9 7,17 16,17 10,0 17,-8 17,-17zm49 0l0 0c0,-9 -7,-17 -16,-17 -9,0 -17,8 -17,17 0,9 8,17 17,17 9,0 16,-8 16,-17zm50 0l0 0c0,-9 -7,-17 -17,-17 -9,0 -16,8 -16,17 0,9 7,17 16,17 10,0 17,-8 17,-17zm50 0l0 0c0,-9 -8,-17 -17,-17 -9,0 -16,8 -16,17 0,9 7,17 16,17 9,0 17,-8 17,-17z"/>
    </g>
   </g>
   <path class="fil3 str0" d="M1494 5406c0,0 -97,-1320 -173,-1646 -77,-327 298,-396 840,-438 542,-41 792,-7 910,70 118,76 170,978 250,1298 79,321 139,736 139,736l-1966 -20z"/>
   <path class="fil3" d="M6283 4312c-74,93 -111,145 -126,168 14,-80 40,-181 84,-300 29,-77 45,-155 52,-234 -4,2 -6,3 -7,4l-6 -13c2,-1 256,-135 327,-262l12 7c-64,114 -264,230 -319,260 52,-5 214,-29 311,-149 116,-143 95,-320 95,-320 0,0 -218,150 -307,266 -56,74 -88,136 -103,172 4,-95 -5,-190 -22,-282 73,-57 341,-278 371,-443 34,-191 -14,-519 -14,-519 0,0 -34,89 -96,198 -61,110 -252,280 -286,464 -10,52 -13,99 -14,140 -31,-107 -70,-209 -110,-302 -11,-25 -20,-53 -27,-81 0,0 0,0 0,0l-6 -4c1,-2 124,-209 124,-269l14 0c0,56 -94,221 -120,265 43,-26 113,-78 139,-161 40,-122 -18,-232 -18,-232 0,0 -104,153 -133,250 -17,61 -22,110 -23,137 -20,-51 -51,-119 -86,-166 -61,-82 -102,-204 -102,-204 0,0 -75,129 -20,266 44,112 172,155 216,167 5,14 11,29 17,43 53,126 107,270 139,420 -31,-43 -91,-117 -148,-159 -83,-60 -158,-166 -158,-166 0,0 -34,146 58,261 75,93 209,98 255,97 32,165 35,337 -18,504 -4,-32 -23,-120 -130,-219 -136,-124 -407,-522 -407,-522 0,0 22,470 152,624 119,141 343,133 380,131 -2,7 -5,14 -8,22 -85,229 -103,390 -105,475l-161 0 0 744 443 0 0 -744 -254 0c1,-35 5,-83 15,-144 -3,1 -5,1 -5,1l-3 -13c2,-1 280,-79 475,-279l10 9c-157,162 -367,245 -448,272 80,-10 276,-39 367,-98 116,-75 218,-300 218,-300 0,0 -375,82 -484,218zm-211 -1209l0 0c-2,0 -144,-67 -178,-238l13 -3c33,165 169,228 171,229l-6 12zm196 530l0 0 -3 5 -5 -2c-8,-3 -189,-78 -263,-186l11 -8c65,95 221,166 252,179 23,-36 171,-265 222,-409l13 5c-56,157 -225,414 -227,416zm-64 510l0 0c-3,-1 -219,-82 -315,-269l12 -7c94,182 305,262 307,263l-4 13z"/>
   <g>
    <g>
     <path class="fil4" d="M3175 3516c0,0 -396,84 -726,270 -330,186 -588,336 -588,408 0,72 -132,1212 -132,1212l3000 0c0,0 -294,-630 -342,-900 -48,-270 -102,-444 -258,-618 -156,-174 -612,-396 -954,-372z"/>
    </g>
    <path class="fil5" d="M2012 4615c44,-32 133,209 158,152 26,-57 -158,-342 -171,-444 -13,-101 108,-114 248,-209 139,-96 266,-172 266,-45 0,127 57,362 102,267 44,-95 139,-216 146,-51 6,165 0,330 19,330 19,0 190,-178 234,-267 45,-88 -50,-317 -50,-418 0,-102 89,-242 89,-242l5 -143c-35,10 -77,22 -124,36l-9 3 0 0 -7 3 -3 1 -13 4 -5 1 -5 2 -7 2 -5 2 0 0 -10 3 -1 1 -4 1 -10 3 -2 1 -2 1 -11 4 -4 1 -10 4 -2 0 -2 1 -10 4 -1 0 -5 2 -11 4 -1 0 -2 1 -12 4 -3 1 -13 5 -1 1 -1 0c-4,2 -9,3 -13,5l-2 1c-4,2 -9,3 -13,5l-2 1c-5,2 -10,4 -15,6l0 0c-5,2 -10,4 -15,6l0 0c-5,2 -10,4 -15,6l-2 1c-5,2 -10,4 -14,6l-1 0c-5,2 -10,4 -15,6l-2 1c-5,2 -9,4 -14,6l-1 1 0 0c-5,2 -9,4 -14,6l-3 1c-10,5 -19,9 -28,13l-4 2c-5,2 -9,4 -14,6l0 1 -1 0c-4,2 -9,4 -14,7l-2 1m-15 7l0 0c-5,3 -10,5 -15,7l-2 2c-5,2 -9,4 -14,7l-1 0 0 0c-4,2 -9,5 -14,7l-3 2m-14 8l0 0c-5,2 -10,5 -14,7l-3 2c-5,2 -9,5 -14,8 -330,186 -588,336 -588,408 0,72 -132,1212 -132,1212l164 0c31,-283 87,-769 119,-791"/>
    <path class="fil6" d="M2012 4615c44,-32 133,209 158,152 26,-57 -158,-342 -171,-444 -13,-101 108,-114 248,-209 139,-96 266,-172 266,-45 0,127 57,362 102,267 44,-95 139,-216 146,-51 6,165 0,330 19,330 19,0 190,-178 234,-267 45,-88 -50,-317 -50,-418 0,-102 89,-242 89,-242l5 -143c-35,10 -77,22 -124,36l-9 3 0 0 -7 3 -3 1 -13 4 -5 1 -5 2 -7 2 -5 2 0 0 -10 3 -1 1 -4 1 -10 3 -2 1 -2 1 -11 4 -4 1 -10 4 -2 0 -2 1 -10 4 -1 0 -5 2 -11 4 -1 0 -2 1 -12 4 -3 1 -13 5 -1 1 -1 0c-4,2 -9,3 -13,5l-2 1c-4,2 -9,3 -13,5l-2 1c-5,2 -10,4 -15,6l0 0c-5,2 -10,4 -15,6l0 0c-5,2 -10,4 -15,6l-2 1c-5,2 -10,4 -14,6l-1 0c-5,2 -10,4 -15,6l-2 1c-5,2 -9,4 -14,6l-1 1 0 0c-5,2 -9,4 -14,6l-3 1c-10,5 -19,9 -28,13l-4 2c-5,2 -9,4 -14,6l0 1 -1 0c-4,2 -9,4 -14,7l-2 1m-15 7l0 0c-5,3 -10,5 -15,7l-2 2c-5,2 -9,4 -14,7l-1 0 0 0c-4,2 -9,5 -14,7l-3 2m-14 8l0 0c-5,2 -10,5 -14,7l-3 2c-5,2 -9,5 -14,8 -330,186 -588,336 -588,408 0,72 -132,1212 -132,1212l164 0c31,-283 87,-769 119,-791"/>
    <path class="fil3" d="M3924 3796c0,0 208,102 287,203 0,0 -79,-157 -273,-250l-14 47z"/>
    <path class="fil5 str0" d="M3924 3796c0,0 208,102 287,203 0,0 -79,-157 -273,-250l-14 47"/>
    <g>
     <g>
      <path class="fil2 str0" d="M3043 3558c0,0 -174,96 -186,312 -12,216 0,438 -12,558 -12,120 -96,216 -30,210 66,-6 216,-246 270,-246 54,0 72,114 96,150 24,36 108,51 108,51 0,0 78,-93 78,-123 0,-30 -24,-132 42,-120 66,12 210,240 216,168 6,-72 -66,-180 -66,-354 0,-174 -84,-378 -204,-504 -120,-126 -189,-112 -312,-102z"/>
      <path class="fil5 str0" d="M3043 3558c0,0 -174,96 -186,312 -12,216 0,438 -12,558 -12,120 -96,216 -30,210 66,-6 216,-246 270,-246 54,0 72,114 96,150 24,36 108,51 108,51 0,0 78,-93 78,-123 0,-30 -24,-132 42,-120 66,12 210,240 216,168 6,-72 -66,-180 -66,-354 0,-174 -84,-378 -204,-504 -120,-126 -189,-112 -312,-102z"/>
     </g>
     <path class="fil0" d="M3058 3557l0 0 -1 0 0 0 0 0 0 0 -1 0 0 0 0 0 0 0 -1 0 0 0 0 0 0 0 0 0 -1 0 0 0 0 0 0 0 0 0 -1 0 0 0 0 0 0 0 -1 0 0 0 0 0 0 0 0 0 -1 0 0 0 0 0 0 0 -1 0 0 0 0 0 0 0 -1 0 0 0 0 0 0 0 0 0 0 0 -1 0 0 0 0 0 0 0 -1 0 0 0 0 0 0 0 -1 0 0 0 0 0 0 0 -1 0 0 0 0 1 0 0 0 0 -1 0 0 0 0 0 0 0 -1 0 0 0 0 0c0,0 -174,96 -186,312l-1 10 0 10 -1 10 0 10 -1 10 0 10 0 11 -1 10 0 10 0 10 0 10 -1 10 0 10 0 10 0 10 0 0 0 10 -1 10 0 10 0 10 0 10 0 9 0 10 0 0 0 10 0 0 0 9 0 10 0 10 0 9 0 0 0 10 0 9 0 9 0 0 0 9 0 10 0 0 0 9 0 9 0 9 0 9 0 8 0 9 0 9 0 8 0 9 0 8 0 0 0 8 0 9 0 0 -1 8 0 8 0 7 0 0 0 8 0 8 0 0 0 7 0 8 -1 7 0 7 0 0 0 7 0 7 0 0 -1 7 0 7 0 6 -1 7 0 0 0 6 0 0 -1 6 0 6 -1 6 0 0 0 6c0,1 0,3 -1,5l0 1c0,1 0,3 0,5l0 0c-1,2 -1,3 -1,5l0 1c-1,1 -1,3 -1,5l0 0 -1 5 0 0c-13,66 -42,121 -50,154 45,-33 184,-182 223,-261 45,-88 -50,-317 -50,-418 0,-102 89,-242 89,-242l5 -131z"/>
     <path class="fil7" d="M3058 3557l0 0 -1 0 0 0 0 0 0 0 -1 0 0 0 0 0 0 0 -1 0 0 0 0 0 0 0 0 0 -1 0 0 0 0 0 0 0 0 0 -1 0 0 0 0 0 0 0 -1 0 0 0 0 0 0 0 0 0 -1 0 0 0 0 0 0 0 -1 0 0 0 0 0 0 0 -1 0 0 0 0 0 0 0 0 0 0 0 -1 0 0 0 0 0 0 0 -1 0 0 0 0 0 0 0 -1 0 0 0 0 0 0 0 -1 0 0 0 0 1 0 0 0 0 -1 0 0 0 0 0 0 0 -1 0 0 0 0 0c0,0 -174,96 -186,312l-1 10 0 10 -1 10 0 10 -1 10 0 10 0 11 -1 10 0 10 0 10 0 10 -1 10 0 10 0 10 0 10 0 0 0 10 -1 10 0 10 0 10 0 10 0 9 0 10 0 0 0 10 0 0 0 9 0 10 0 10 0 9 0 0 0 10 0 9 0 9 0 0 0 9 0 10 0 0 0 9 0 9 0 9 0 9 0 8 0 9 0 9 0 8 0 9 0 8 0 0 0 8 0 9 0 0 -1 8 0 8 0 7 0 0 0 8 0 8 0 0 0 7 0 8 -1 7 0 7 0 0 0 7 0 7 0 0 -1 7 0 7 0 6 -1 7 0 0 0 6 0 0 -1 6 0 6 -1 6 0 0 0 6c0,1 0,3 -1,5l0 1c0,1 0,3 0,5l0 0c-1,2 -1,3 -1,5l0 1c-1,1 -1,3 -1,5l0 0 -1 5 0 0c-13,66 -42,121 -50,154 45,-33 184,-182 223,-261 45,-88 -50,-317 -50,-418 0,-102 89,-242 89,-242l5 -131z"/>
     <g>
      <path class="fil2 str0" d="M3093 3559c0,0 -72,157 -72,347 0,190 98,386 137,477 40,92 131,210 131,210 0,0 -6,-242 52,-360 59,-118 112,-203 112,-203 0,0 -72,-72 -177,-235 -105,-164 -183,-236 -183,-236z"/>
      <path class="fil5 str0" d="M3093 3559c0,0 -72,157 -72,347 0,190 98,386 137,477 40,92 131,210 131,210 0,0 -6,-242 52,-360 59,-118 112,-203 112,-203 0,0 -72,-72 -177,-235 -105,-164 -183,-236 -183,-236z"/>
     </g>
     <path class="fil0" d="M3407 4109l-25 -162c-18,-24 -40,-54 -65,-91l-2 -2 -1 -2 -1 -1 -1 -2 -2 -3 -1 -1 -1 -2 -2 -2 -1 -3 -1 0 -2 -3 -1 -3 -1 -1 -1 -1 0 -1 -3 -4 -1 -1 0 0 -2 -3 -2 -3 0 -1 -2 -2 -1 -2 -2 -3 0 0 -1 -1 -3 -5 -1 -2 -1 -1 -2 -3 -2 -3c-105,-164 -183,-236 -183,-236l0 0 0 1 -1 0 0 1 0 1 -1 1 -1 2 0 1 -1 2 0 0 -1 2 -1 3 -1 2 0 0 -1 3 -1 3 -1 3 -1 3 -2 3 -1 4 0 0 -1 4 0 0 -2 3 0 0 -1 5 0 0 -2 4 0 0 -1 4 -2 5 -1 5 -2 5 0 0 -2 5 -1 5 -2 5 -2 6 -1 6 -2 5 0 0 -2 6 0 0 -1 7 0 0 -2 6 0 0 -2 6 0 0 -1 7 0 0 -2 6 -2 7 0 0 -1 7 0 0 -2 7 0 0c0,2 -1,5 -1,7l-2 7 -1 7 -2 8c0,2 -1,5 -1,7l-2 8 0 0 -1 8 0 0c0,2 -1,5 -1,8l0 0c0,2 -1,5 -1,7l0 0c-1,3 -1,6 -1,8l0 0c-1,3 -1,6 -1,9 -1,2 -1,5 -1,8l0 0c-1,2 -1,5 -1,8l0 0c-1,3 -1,5 -1,8 0,3 -1,6 -1,9l0 0c0,2 0,5 -1,8l0 0c0,3 0,6 0,9l0 0c0,2 -1,5 -1,8l0 0c0,3 0,6 0,9l0 0c0,3 0,6 -1,8l0 0c0,3 0,6 0,9l0 0c0,3 0,6 0,9l0 0c0,3 0,6 0,9l0 1c0,2 0,5 0,7l0 2c0,2 0,5 0,7l0 2 1 6 0 3 0 5 0 5 0 0 0 4 0 0c5,60 18,120 35,177l347 -11 3 -5z"/>
     <path class="fil7" d="M3407 4109l-25 -162c-18,-24 -40,-54 -65,-91l-2 -2 -1 -2 -1 -1 -1 -2 -2 -3 -1 -1 -1 -2 -2 -2 -1 -3 -1 0 -2 -3 -1 -3 -1 -1 -1 -1 0 -1 -3 -4 -1 -1 0 0 -2 -3 -2 -3 0 -1 -2 -2 -1 -2 -2 -3 0 0 -1 -1 -3 -5 -1 -2 -1 -1 -2 -3 -2 -3c-105,-164 -183,-236 -183,-236l0 0 0 1 -1 0 0 1 0 1 -1 1 -1 2 0 1 -1 2 0 0 -1 2 -1 3 -1 2 0 0 -1 3 -1 3 -1 3 -1 3 -2 3 -1 4 0 0 -1 4 0 0 -2 3 0 0 -1 5 0 0 -2 4 0 0 -1 4 -2 5 -1 5 -2 5 0 0 -2 5 -1 5 -2 5 -2 6 -1 6 -2 5 0 0 -2 6 0 0 -1 7 0 0 -2 6 0 0 -2 6 0 0 -1 7 0 0 -2 6 -2 7 0 0 -1 7 0 0 -2 7 0 0c0,2 -1,5 -1,7l-2 7 -1 7 -2 8c0,2 -1,5 -1,7l-2 8 0 0 -1 8 0 0c0,2 -1,5 -1,8l0 0c0,2 -1,5 -1,7l0 0c-1,3 -1,6 -1,8l0 0c-1,3 -1,6 -1,9 -1,2 -1,5 -1,8l0 0c-1,2 -1,5 -1,8l0 0c-1,3 -1,5 -1,8 0,3 -1,6 -1,9l0 0c0,2 0,5 -1,8l0 0c0,3 0,6 0,9l0 0c0,2 -1,5 -1,8l0 0c0,3 0,6 0,9l0 0c0,3 0,6 -1,8l0 0c0,3 0,6 0,9l0 0c0,3 0,6 0,9l0 0c0,3 0,6 0,9l0 1c0,2 0,5 0,7l0 2c0,2 0,5 0,7l0 2 1 6 0 3 0 5 0 5 0 0 0 4 0 0c5,60 18,120 35,177l347 -11 3 -5z"/>
     <path class="fil3" d="M3276 3795c-105,-164 -183,-236 -183,-236l0 0 0 1 -1 0 0 1 0 1 -1 1 -1 2 0 1 -1 2 0 0 -1 2 -1 3 -1 2 0 0 -1 3 -1 3 -1 3 -1 3 -2 3 -1 4 0 0 -1 4 0 0 -2 3 0 0 -1 5 0 0 -2 4 0 0 -1 4 -2 5 -1 5 -2 5 0 0 -2 5 -1 5 -2 5 -2 6 -1 6 -2 5 0 0 -2 6 0 0 -1 7 0 0 -2 6 0 0 -2 6 0 0 -1 7 0 0 -2 6 -2 7 0 0 -1 7 0 0 -2 7 0 0c0,2 -1,5 -1,7l-2 7 -1 7 -2 8c0,2 -1,5 -1,7l-2 8 0 0 -1 8 0 0c0,2 -1,5 -1,8l0 0c0,2 -1,5 -1,7l0 0c-1,3 -1,6 -1,8l0 0c-1,3 -1,6 -1,9 -1,2 -1,5 -1,8l0 0c-1,2 -1,5 -1,8l0 0c-1,3 -1,5 -1,8 0,3 -1,6 -1,9l0 0c0,2 0,5 -1,8l0 0c0,3 0,6 0,9l0 0c0,2 -1,5 -1,8l0 0c0,3 0,6 0,9l0 0c0,3 0,6 -1,8l0 0c0,3 0,6 0,9l0 0c0,3 0,6 0,9l0 0c0,3 0,6 0,9l0 1c0,2 0,4 0,7l0 2 0 6 0 4 0 2c2,31 6,63 11,94l293 10 71 -67c-17,-22 -39,-50 -63,-85l-2 -3 0 0 -2 -2 -4 -6 -2 -3 0 -1 -2 -2 -2 -3 -2 -3 -2 -3 -1 -2 -1 -1 -2 -3 -2 -3 0 0 -2 -3 -2 -4 0 0 -2 -3 -3 -3 0 -1 -2 -2 -2 -3 -1 -2 -1 -2 -3 -4 0 -1 -2 -1 -2 -4 -1 -2 -1 -1 -2 -4 -2 -3 0 0 -5 -7z"/>
     <path class="fil5 str0" d="M3276 3795c-105,-164 -183,-236 -183,-236l0 0 0 1 -1 0 0 1 0 1 -1 1 -1 2 0 1 -1 2 0 0 -1 2 -1 3 -1 2 0 0 -1 3 -1 3 -1 3 -1 3 -2 3 -1 4 0 0 -1 4 0 0 -2 3 0 0 -1 5 0 0 -2 4 0 0 -1 4 -2 5 -1 5 -2 5 0 0 -2 5 -1 5 -2 5 -2 6 -1 6 -2 5 0 0 -2 6 0 0 -1 7 0 0 -2 6 0 0 -2 6 0 0 -1 7 0 0 -2 6 -2 7 0 0 -1 7 0 0 -2 7 0 0c0,2 -1,5 -1,7l-2 7 -1 7 -2 8c0,2 -1,5 -1,7l-2 8 0 0 -1 8 0 0c0,2 -1,5 -1,8l0 0c0,2 -1,5 -1,7l0 0c-1,3 -1,6 -1,8l0 0c-1,3 -1,6 -1,9 -1,2 -1,5 -1,8l0 0c-1,2 -1,5 -1,8l0 0c-1,3 -1,5 -1,8 0,3 -1,6 -1,9l0 0c0,2 0,5 -1,8l0 0c0,3 0,6 0,9l0 0c0,2 -1,5 -1,8l0 0c0,3 0,6 0,9l0 0c0,3 0,6 -1,8l0 0c0,3 0,6 0,9l0 0c0,3 0,6 0,9l0 0c0,3 0,6 0,9l0 1m0 7l0 2 0 6 0 4 0 2c2,31 6,63 11,94l293 10 71 -67m-63 -85l-2 -3 0 0 -2 -2 -4 -6 -2 -3 0 -1 -2 -2 -2 -3 -2 -3 -2 -3 -1 -2 -1 -1 -2 -3 -2 -3 0 0 -2 -3 -2 -4 0 0 -2 -3 -3 -3 0 -1 -2 -2 -2 -3 -1 -2 -1 -2 -3 -4 0 -1 -2 -1 -2 -4 -1 -2 -1 -1 -2 -4 -2 -3 0 0 -5 -7"/>
     <g>
      <path class="fil5 str1" d="M2653 3978c0,0 132,-318 348,-396"/>
      <path class="fil5 str1" d="M2083 4242c0,0 180,294 204,546"/>
      <path class="fil5 str1" d="M2305 4512c0,0 60,378 60,570 0,192 30,324 30,324"/>
      <path class="fil5 str1" d="M2359 4998c0,0 54,-216 48,-450"/>
      <path class="fil5 str1" d="M4003 4518c0,0 18,216 60,480 42,264 66,396 66,396"/>
     </g>
    </g>
    <g>
     <path class="fil2 str0" d="M3024 5029c0,0 -127,259 -146,297 -18,37 -47,103 -47,103l226 0c0,0 127,-84 141,-89 14,-5 94,0 151,-24 56,-23 113,-84 169,-98 56,-15 132,-38 155,-38 24,0 104,23 155,23 52,0 118,-51 76,-75 -43,-23 -76,-9 -132,-37 -57,-29 -75,-38 -132,-29 -56,10 -103,-23 -240,-51 -136,-29 -291,-38 -376,18z"/>
     <path class="fil2 str0" d="M3418 4885c0,0 74,-63 135,-33 61,31 33,227 48,305 15,78 32,119 -7,124 -39,4 -54,-26 -85,-96 -30,-69 -91,-300 -91,-300z"/>
     <path class="fil2 str0" d="M3238 4924c0,0 97,-87 141,-87 43,0 78,155 111,222 32,67 80,148 61,170 -20,21 -61,30 -96,-7 -35,-37 -111,-200 -133,-226 -21,-26 -84,-72 -84,-72z"/>
     <path class="fil2 str0" d="M3137 4955c0,0 7,-31 101,-31 93,0 174,131 230,161 57,31 39,44 -2,63 -41,20 -68,-2 -150,-48 -83,-45 -179,-145 -179,-145z"/>
     <line class="fil5 str1" x1="3034" y1="5171" x2="3099" y2= "5062" />
     <path class="fil2" d="M2963 5152l136 -90c0,0 52,10 85,38 33,28 94,85 169,85 76,0 99,-24 71,-47 -28,-24 -113,-66 -174,-109 -61,-42 -108,-112 -155,-98 -47,14 -80,103 -132,221z"/>
     <path class="fil5 str1" d="M3099 5062c0,0 52,10 85,38 33,28 94,85 169,85 76,0 99,-24 71,-47 -28,-24 -113,-66 -174,-109 -61,-42 -108,-112 -155,-98 -47,14 -80,103 -132,221"/>
    </g>
    <g>
     <g>
      <g>
       <path class="fil2 str0" d="M4086 3098c0,0 -18,269 -47,364 -29,94 -69,385 -156,512 -88,127 -200,236 -327,243 -128,7 -298,-218 -396,-363 -98,-145 -109,-291 -142,-432 -33,-142 -40,-305 11,-433 51,-127 305,-283 519,-265 215,18 483,131 538,215 54,83 0,159 0,159z"/>
       <path class="fil5 str0" d="M4086 3098c0,0 -18,269 -47,364 -29,94 -69,385 -156,512 -88,127 -200,236 -327,243 -128,7 -298,-218 -396,-363 -98,-145 -109,-291 -142,-432 -33,-142 -40,-305 11,-433 51,-127 305,-283 519,-265 215,18 483,131 538,215 54,83 0,159 0,159z"/>
      </g>
      <path class="fil0" d="M3029 2989c-51,128 -44,291 -11,433 33,141 44,287 142,432l4 7 5 7 5 7 5 7 0 0 5 7 5 8 5 7 0 0 6 8 0 0 5 7 0 0 6 8 5 7 6 8 5 8 0 0 6 8 0 0 6 7 0 0 6 8 6 8 0 0 6 8 0 0 6 7 6 8 7 8 6 7 0 0 6 8c2,3 4,5 7,8 2,2 4,5 6,7l0 0 6 8c3,2 5,5 7,7 2,3 4,5 6,7 3,3 5,5 7,8 2,2 4,4 6,7l0 0c3,2 5,4 7,7l0 0c2,2 5,4 7,7 2,2 4,4 6,7 3,2 5,4 7,6 2,3 5,5 7,7 2,2 4,4 6,6 3,3 5,5 7,7 2,2 5,4 7,6l0 0c2,2 4,4 7,6 2,2 4,4 6,6 3,2 5,4 7,5l0 0c2,2 5,4 7,6l0 0c2,2 4,4 6,5 3,2 5,4 7,5 2,2 5,4 7,5 2,2 4,4 7,5 2,2 4,3 6,5 2,1 5,3 7,4 2,1 4,3 7,4 2,1 4,3 6,4 2,1 5,2 7,3 2,2 4,3 6,4 2,1 5,2 7,3 2,1 4,2 6,3 2,1 5,2 7,2 2,1 4,2 6,3 2,0 4,1 6,2 3,0 5,1 7,1 2,1 4,1 6,2 2,0 4,1 6,1 2,0 4,1 6,1 2,0 5,0 7,0 2,0 4,0 6,0 2,0 4,0 6,0 1,0 3,0 5,0l1 0c2,0 3,-1 5,-1l0 0 1 0 0 0c1,0 3,0 5,0l1 -1 4 0 3 -1 1 0c42,-7 81,-25 119,-50 -21,3 -42,5 -65,7 -133,12 -196,-76 -279,-248 -82,-171 -32,-273 -63,-304 -32,-32 -32,-261 -32,-261 0,0 25,-101 38,-139 13,-38 146,-89 146,-89 0,0 0,95 91,88 92,-7 156,-107 156,-107l-12 -366c-28,-6 -56,-11 -84,-15l-2 0 -2 -1 -2 0 -4 -1 -7 0 -2 -1c-3,0 -6,0 -9,-1l0 0 -1 0 0 0c-3,0 -6,-1 -9,-1l-1 0 0 0 0 0c-3,0 -6,0 -10,-1 -214,-18 -468,138 -519,265z"/>
      <path class="fil7" d="M3029 2989c-51,128 -44,291 -11,433 33,141 44,287 142,432l4 7 5 7 5 7 5 7 0 0 5 7 5 8 5 7 0 0 6 8 0 0 5 7 0 0 6 8 5 7 6 8 5 8 0 0 6 8 0 0 6 7 0 0 6 8 6 8 0 0 6 8 0 0 6 7 6 8 7 8 6 7 0 0 6 8c2,3 4,5 7,8 2,2 4,5 6,7l0 0 6 8c3,2 5,5 7,7 2,3 4,5 6,7 3,3 5,5 7,8 2,2 4,4 6,7l0 0c3,2 5,4 7,7l0 0c2,2 5,4 7,7 2,2 4,4 6,7 3,2 5,4 7,6 2,3 5,5 7,7 2,2 4,4 6,6 3,3 5,5 7,7 2,2 5,4 7,6l0 0c2,2 4,4 7,6 2,2 4,4 6,6 3,2 5,4 7,5l0 0c2,2 5,4 7,6l0 0c2,2 4,4 6,5 3,2 5,4 7,5 2,2 5,4 7,5 2,2 4,4 7,5 2,2 4,3 6,5 2,1 5,3 7,4 2,1 4,3 7,4 2,1 4,3 6,4 2,1 5,2 7,3 2,2 4,3 6,4 2,1 5,2 7,3 2,1 4,2 6,3 2,1 5,2 7,2 2,1 4,2 6,3 2,0 4,1 6,2 3,0 5,1 7,1 2,1 4,1 6,2 2,0 4,1 6,1 2,0 4,1 6,1 2,0 5,0 7,0 2,0 4,0 6,0 2,0 4,0 6,0 1,0 3,0 5,0l1 0c2,0 3,-1 5,-1l0 0 1 0 0 0c1,0 3,0 5,0l1 -1 4 0 3 -1 1 0c42,-7 81,-25 119,-50 -21,3 -42,5 -65,7 -133,12 -196,-76 -279,-248 -82,-171 -32,-273 -63,-304 -32,-32 -32,-261 -32,-261 0,0 25,-101 38,-139 13,-38 146,-89 146,-89 0,0 0,95 91,88 92,-7 156,-107 156,-107l-12 -366c-28,-6 -56,-11 -84,-15l-2 0 -2 -1 -2 0 -4 -1 -7 0 -2 -1c-3,0 -6,0 -9,-1l0 0 -1 0 0 0c-3,0 -6,-1 -9,-1l-1 0 0 0 0 0c-3,0 -6,0 -10,-1 -214,-18 -468,138 -519,265z"/>
      <g>
       <path class="fil5 str1" d="M3719 3458c0,0 4,185 98,232 0,0 22,8 11,33 -11,26 -94,40 -153,-3"/>
       <g>
        <path class="fil3" d="M3799 3301c-6,0 -12,-3 -16,-8 -7,-9 -6,-22 3,-29 3,-3 84,-68 211,-23 11,4 16,16 12,27 -3,10 -15,16 -26,12 -105,-37 -170,15 -170,16 -4,3 -9,5 -14,5z"/>
       </g>
       <g>
        <path class="fil3" d="M3580 3275c-7,0 -14,-3 -18,-10 -2,-4 -52,-86 -150,-73 -12,2 -22,-6 -24,-17 -1,-12 7,-22 18,-24 127,-17 190,88 192,93 6,10 3,23 -7,28 -3,2 -7,3 -11,3z"/>
       </g>
       <line class="fil5 str1" x1="3642" y1="3919" x2="3701" y2= "3919" />
      </g>
     </g>
     <g>
      <path class="fil3 str0" d="M3109 2568c0,0 -236,76 -254,171 -19,94 101,425 98,465 -4,40 -40,72 0,130 40,59 112,146 141,99 29,-48 -11,-117 37,-146 47,-29 112,-76 76,-138 -36,-62 -18,-152 58,-163 76,-11 142,-62 102,-4 -40,58 -156,200 -95,211 62,11 305,-153 305,-153 0,0 -83,167 -40,178 44,11 385,-214 385,-214 0,0 164,214 197,200 32,-15 11,-135 11,-135 0,0 25,160 76,167 51,8 120,-79 98,-134 -22,-54 -58,-131 -58,-131 0,0 72,-18 101,-51 30,-32 26,-36 -36,-47 -62,-11 -109,-80 -167,-142 -58,-61 -152,-145 -152,-145 0,0 108,47 50,-7 -58,-55 -367,-178 -534,-178 -167,0 -228,87 -228,87 0,0 29,-109 -4,-94 -33,14 -69,101 -69,101 0,0 -76,-21 -116,4 -40,25 -51,51 -19,51 33,0 55,7 55,7l-18 11z"/>
      <path class="fil5 str0" d="M3109 2568c0,0 -236,76 -254,171 -19,94 101,425 98,465 -4,40 -40,72 0,130 40,59 112,146 141,99 29,-48 -11,-117 37,-146 47,-29 112,-76 76,-138 -36,-62 -18,-152 58,-163 76,-11 142,-62 102,-4 -40,58 -156,200 -95,211 62,11 305,-153 305,-153 0,0 -83,167 -40,178 44,11 385,-214 385,-214 0,0 164,214 197,200 32,-15 11,-135 11,-135 0,0 25,160 76,167 51,8 120,-79 98,-134 -22,-54 -58,-131 -58,-131 0,0 72,-18 101,-51 30,-32 26,-36 -36,-47 -62,-11 -109,-80 -167,-142 -58,-61 -152,-145 -152,-145 0,0 108,47 50,-7 -58,-55 -367,-178 -534,-178 -167,0 -228,87 -228,87 0,0 29,-109 -4,-94 -33,14 -69,101 -69,101 0,0 -76,-21 -116,4 -40,25 -51,51 -19,51 33,0 55,7 55,7l-18 11z"/>
     </g>
     <g>
      <path class="fil8" d="M3094 3433c29,-48 -11,-117 37,-146 47,-29 112,-76 76,-138 -36,-62 -18,-152 58,-163l3 -1 1 0 2 0 1 0 4 -1 0 0 3 -1 0 0 4 0 0 0 3 -1 0 0c48,-11 88,-34 92,-25 25,-34 36,-60 1,-49 -68,20 -277,54 -257,121 20,68 34,101 -20,122 -54,20 -54,67 -54,121 0,46 -22,123 -28,144 21,20 43,34 59,29l0 0 1 0 0 0c0,0 1,0 1,-1l0 0 1 0c0,0 1,0 1,0l1 -1c0,0 0,0 1,0l0 -1c1,0 1,0 1,-1l1 0c0,0 1,-1 1,-1l0 0c1,-1 1,-1 2,-2l0 0c0,0 1,-1 1,-1l1 -1c0,0 0,-1 1,-1l0 0c0,-1 1,-2 1,-2zm-12 11c0,0 1,0 1,0"/>
      <path class="fil8" d="M4130 3069l0 0 0 4 0 0 0 1 0 1 1 1 0 0 0 1 0 1 0 1 0 1 1 1 0 1 0 1 0 1 0 1 1 2 0 2 0 0 1 2 0 3 0 0 1 3 0 0 0 2 1 1 0 2 0 1 1 2 0 3 1 2 0 1 1 2 0 1 0 3 0 0 1 3 0 0 1 4 0 0 1 3 0 1 0 0c1,2 1,4 2,7l0 0 1 2 0 2 0 0c1,3 2,5 2,7l0 0 1 4 1 0 1 4 0 0 1 4 0 0 1 3 0 1 1 3 1 0 0 1 1 3 0 1 1 3 1 0 1 3 0 1 1 3 0 1 2 2 0 1 1 3 0 1 2 3 0 0 2 3 0 0c0,2 1,3 1,4l1 0 1 3 0 0 2 3 0 0 1 3 1 1 1 2 1 1 1 1 0 1 2 2 0 1 1 2 1 1c1,0 1,1 2,1l0 1c1,1 1,1 2,2l0 0 0 0 0 0c1,1 1,1 2,2l0 0c1,1 1,1 2,2l1 1 1 1 1 0 1 1 1 1 1 1 1 0 1 1 1 1c0,0 1,0 1,0l1 1c1,0 1,0 1,0l1 0c1,1 1,1 2,1l1 0c0,0 1,0 2,0 51,8 120,-79 98,-134l0 -1 -1 0 0 -1 0 0 0 -1 0 0 0 0 -1 -1 0 0 0 -1 0 0 0 -1 -1 0 0 -1 0 0 0 -1 -1 0 0 -1 0 -1 0 0 0 0 0 -1 -1 0 0 -1 0 0 0 -1 0 0 -1 -1 0 0 0 -1 0 0 -1 -1 0 0 0 0 0 -1 0 -1 -1 -1 0 0 0 -1 -1 -1 0 0 0 0c-2,-6 -4,-11 -7,-16 -17,26 -40,52 -66,52 -54,0 -92,-48 -92,-48zm0 0l4 68c0,0 1,4 3,11 0,-25 -3,-52 -6,-67l0 -1 0 0 0 0 0 -1 0 0 0 -1 0 -1 0 0 0 0 0 -1 0 -1 -1 0 0 -1 0 0 0 -1m0 -4c0,1 0,2 0,4l0 1"/>
      <path class="fil8" d="M4058 3163c-45,-101 -94,-231 -119,-269 -41,-61 -183,162 -304,236 -50,31 -85,44 -108,44 -2,13 -3,24 -1,32l0 0 1 1 0 1 0 1 1 1c0,0 0,1 0,1l1 1c0,0 0,0 0,1l1 0c0,1 0,1 1,1l0 1c0,0 1,0 1,1l0 0c1,0 1,0 2,1l0 0c0,0 1,0 1,1l1 0c0,0 1,0 1,0 44,11 385,-214 385,-214l1 0 0 0 0 0 0 1 0 0 0 0 1 0 0 1 0 0 0 0 1 1 0 1 1 0 1 1 0 0 1 2 0 0 1 1 1 1 0 1 2 3 1 1 1 1 1 2 0 0 2 2 1 1 1 1 1 2 0 0 2 2 1 1 1 1 2 3 0 0 2 2 1 1 1 2 2 2 0 0 2 3 1 1 1 2 2 2 1 1 2 3 0 0 5 5 2 3 0 1 3 2 1 2 1 2 3 3c25,30 55,65 82,92z"/>
      <path class="fil8" d="M3258 3154c-4,12 -5,23 -1,30l1 0c0,1 0,1 0,1l1 1 1 1c0,0 0,0 1,1l0 0c1,1 1,1 2,1l0 0c0,1 1,1 2,1l0 0 0 0 0 0c0,1 1,1 2,1l0 0c1,1 2,1 2,1l1 0c0,0 1,1 2,1l0 0c1,0 2,0 3,0l1 0c1,0 1,0 2,0l1 0c1,0 2,0 3,0l0 0 0 0c1,0 2,0 4,0l1 0c0,0 1,0 2,-1l1 0c3,0 5,-1 8,-1l1 -1 3 0 2 -1c1,0 2,0 4,-1l0 0c2,0 3,-1 5,-1l1 -1 3 -1 2 -1 3 -1 1 0 1 0 5 -2 1 -1 4 -1 1 -1c2,0 3,-1 5,-2l0 0 6 -2 1 -1 5 -2 0 0 5 -3 1 0 1 0 5 -3 0 0 6 -2 1 -1c8,-4 16,-8 25,-12l0 -1 1 0 5 -3 0 0 1 0 5 -3 2 -1c6,-4 12,-7 19,-10l0 0 5 -4 1 0 1 -1 5 -2 1 -1c4,-2 8,-4 12,-7l0 0 2 -1 4 -3 1 0 4 -2 2 -1 3 -2 3 -2 2 -1 4 -3 0 0 5 -2 1 -1 3 -2 3 -2 2 -1 4 -3 0 0 4 -2 2 -1 3 -2 2 -2 2 0 4 -3 0 0 4 -2 1 -1 3 -2 2 -1 2 -1 3 -2 0 -1 4 -2 1 0 2 -2 2 -1 2 -1c40,-50 90,-80 95,-124 7,-54 -250,162 -337,203 -19,8 -32,11 -40,10z"/>
     </g>
     <g>
      <path class="fil3" d="M3646 3315c0,0 -53,-58 -196,-54 -143,5 -245,29 -274,45 -28,17 -12,37 -4,66 9,28 29,163 62,216 32,53 118,98 175,98 57,0 90,-12 151,-57 61,-45 102,-208 106,-221 4,-12 0,-36 41,-24 41,12 45,192 57,228 12,37 94,86 159,86 65,0 127,-33 180,-126 53,-94 36,-184 36,-184 0,0 57,-45 13,-61 -45,-17 -200,-59 -298,-29 -119,37 -180,29 -208,17z"/>
      <path class="fil3" d="M3197 3310l-273 37 0 33 269 -17c0,0 -25,-40 4,-53z"/>
      <g>
       <path class="fil0" d="M3923 3658c-80,0 -121,-42 -130,-116 -10,-88 -20,-150 -48,-179 36,-4 76,-13 121,-27 19,-6 42,-9 70,-9 66,0 138,18 179,30 0,0 -19,15 -19,15l4 23c0,1 13,78 -32,157 -54,95 -109,106 -145,106zm-514 -12l0 0c-42,0 -115,-36 -142,-79 -20,-34 -38,-120 -47,-166 -4,-18 -7,-32 -9,-40 -2,-7 -5,-13 -7,-20 0,-1 -1,-2 -1,-3 32,-13 123,-33 248,-37 5,0 9,0 13,0 110,0 152,40 152,41l6 6 8 3c5,2 11,4 16,6 -8,8 -14,20 -17,37l-1 3c0,0 -1,4 -3,9 -40,143 -75,181 -89,191 -57,42 -82,49 -127,49z"/>
       <path class="fil3" d="M3313 3368l-21 0c-3,0 -5,-3 -5,-5 0,-3 2,-6 5,-6l21 0c3,0 5,3 5,6 0,2 -2,5 -5,5zm5 18l0 0c0,-2 -2,-5 -5,-5l-21 0c-3,0 -5,3 -5,5 0,3 2,6 5,6l21 0c3,0 5,-3 5,-6zm0 24l0 0c0,-3 -2,-5 -5,-5l-21 0c-3,0 -5,2 -5,5 0,3 2,5 5,5l21 0c3,0 5,-2 5,-5zm0 24l0 0c0,-3 -2,-5 -5,-5l-21 0c-3,0 -5,2 -5,5 0,3 2,5 5,5l21 0c3,0 5,-2 5,-5zm0 24l0 0c0,-3 -2,-5 -5,-5l-21 0c-3,0 -5,2 -5,5 0,3 2,5 5,5l21 0c3,0 5,-2 5,-5zm0 24l0 0c0,-3 -2,-5 -5,-5l-21 0c-3,0 -5,2 -5,5 0,3 2,5 5,5l21 0c3,0 5,-2 5,-5zm0 24l0 0c0,-3 -2,-5 -5,-5l-21 0c-3,0 -5,2 -5,5 0,3 2,5 5,5l21 0c3,0 5,-2 5,-5zm0 24l0 0c0,-3 -2,-5 -5,-5l-21 0c-3,0 -5,2 -5,5 0,3 2,5 5,5l21 0c3,0 5,-2 5,-5zm78 -167l0 0c0,-3 -2,-6 -5,-6l-55 0c-3,0 -5,3 -5,6 0,2 2,5 5,5l55 0c3,0 5,-3 5,-5zm0 23l0 0c0,-2 -2,-5 -5,-5l-55 0c-3,0 -5,3 -5,5 0,3 2,6 5,6l55 0c3,0 5,-3 5,-6zm0 24l0 0c0,-3 -2,-5 -5,-5l-55 0c-3,0 -5,2 -5,5 0,3 2,5 5,5l55 0c3,0 5,-2 5,-5zm0 24l0 0c0,-3 -2,-5 -5,-5l-55 0c-3,0 -5,2 -5,5 0,3 2,5 5,5l55 0c3,0 5,-2 5,-5zm0 24l0 0c0,-3 -2,-5 -5,-5l-55 0c-3,0 -5,2 -5,5 0,3 2,5 5,5l55 0c3,0 5,-2 5,-5zm66 24l0 0c0,-3 -2,-5 -5,-5l-55 0c-3,0 -5,2 -5,5 0,3 2,5 5,5l55 0c3,0 5,-2 5,-5zm0 24l0 0c0,-3 -2,-5 -5,-5l-55 0c-3,0 -5,2 -5,5 0,3 2,5 5,5l55 0c3,0 5,-2 5,-5zm0 24l0 0c0,-3 -2,-5 -5,-5l-55 0c-3,0 -5,2 -5,5 0,3 2,5 5,5l55 0c3,0 5,-2 5,-5zm-42 -167l0 0c0,-4 -2,-6 -6,-6 -3,0 -5,2 -5,6 0,3 2,6 5,6 4,0 6,-3 6,-6zm18 0l0 0c0,-4 -2,-6 -6,-6 -3,0 -6,2 -6,6 0,3 3,6 6,6 4,0 6,-3 6,-6zm18 0l0 0c0,-4 -2,-6 -6,-6 -3,0 -6,2 -6,6 0,3 3,6 6,6 4,0 6,-3 6,-6zm18 0l0 0c0,-4 -2,-6 -6,-6 -3,0 -6,2 -6,6 0,3 3,6 6,6 4,0 6,-3 6,-6zm18 0l0 0c0,-4 -3,-6 -6,-6 -3,0 -6,2 -6,6 0,3 3,6 6,6 3,0 6,-3 6,-6zm18 0l0 0c0,-4 -3,-6 -6,-6 -3,0 -6,2 -6,6 0,3 3,6 6,6 3,0 6,-3 6,-6zm-90 47l0 0c0,-3 -2,-6 -6,-6 -3,0 -5,3 -5,6 0,4 2,6 5,6 4,0 6,-2 6,-6zm18 0l0 0c0,-3 -2,-6 -6,-6 -3,0 -6,3 -6,6 0,4 3,6 6,6 4,0 6,-2 6,-6zm18 0l0 0c0,-3 -2,-6 -6,-6 -3,0 -6,3 -6,6 0,4 3,6 6,6 4,0 6,-2 6,-6zm18 0l0 0c0,-3 -2,-6 -6,-6 -3,0 -6,3 -6,6 0,4 3,6 6,6 4,0 6,-2 6,-6zm18 0l0 0c0,-3 -3,-6 -6,-6 -3,0 -6,3 -6,6 0,4 3,6 6,6 3,0 6,-2 6,-6zm18 0l0 0c0,-3 -3,-6 -6,-6 -3,0 -6,3 -6,6 0,4 3,6 6,6 3,0 6,-2 6,-6zm-28 69l0 0c0,-3 -3,-6 -6,-6 -4,0 -6,3 -6,6 0,3 2,6 6,6 3,0 6,-3 6,-6zm18 0l0 0c0,-3 -3,-6 -6,-6 -4,0 -6,3 -6,6 0,3 2,6 6,6 3,0 6,-3 6,-6zm18 0l0 0c0,-3 -3,-6 -6,-6 -4,0 -6,3 -6,6 0,3 2,6 6,6 3,0 6,-3 6,-6zm17 0l0 0c0,-3 -2,-6 -5,-6 -4,0 -6,3 -6,6 0,3 2,6 6,6 3,0 5,-3 5,-6zm18 0l0 0c0,-3 -2,-6 -6,-6 -3,0 -6,3 -6,6 0,3 3,6 6,6 4,0 6,-3 6,-6zm18 0l0 0c0,-3 -2,-6 -6,-6 -3,0 -6,3 -6,6 0,3 3,6 6,6 4,0 6,-3 6,-6zm-89 49l0 0c0,-3 -3,-6 -6,-6 -4,0 -6,3 -6,6 0,4 2,6 6,6 3,0 6,-2 6,-6zm18 0l0 0c0,-3 -3,-6 -6,-6 -4,0 -6,3 -6,6 0,4 2,6 6,6 3,0 6,-2 6,-6zm18 0l0 0c0,-3 -3,-6 -6,-6 -4,0 -6,3 -6,6 0,4 2,6 6,6 3,0 6,-2 6,-6zm17 0l0 0c0,-3 -2,-6 -5,-6 -4,0 -6,3 -6,6 0,4 2,6 6,6 3,0 5,-2 5,-6zm18 0l0 0c0,-3 -2,-6 -6,-6 -3,0 -6,3 -6,6 0,4 3,6 6,6 4,0 6,-2 6,-6zm18 0l0 0c0,-3 -2,-6 -6,-6 -3,0 -6,3 -6,6 0,4 3,6 6,6 4,0 6,-2 6,-6z"/>
       <path class="fil3" d="M3824 3368l-21 0c-3,0 -5,-3 -5,-5 0,-3 2,-6 5,-6l21 0c3,0 5,3 5,6 0,2 -2,5 -5,5zm5 18l0 0c0,-2 -2,-5 -5,-5l-21 0c-3,0 -5,3 -5,5 0,3 2,6 5,6l21 0c3,0 5,-3 5,-6zm0 24l0 0c0,-3 -2,-5 -5,-5l-21 0c-3,0 -5,2 -5,5 0,3 2,5 5,5l21 0c3,0 5,-2 5,-5zm0 24l0 0c0,-3 -2,-5 -5,-5l-21 0c-3,0 -5,2 -5,5 0,3 2,5 5,5l21 0c3,0 5,-2 5,-5zm0 24l0 0c0,-3 -2,-5 -5,-5l-21 0c-3,0 -5,2 -5,5 0,3 2,5 5,5l21 0c3,0 5,-2 5,-5zm0 24l0 0c0,-3 -2,-5 -5,-5l-21 0c-3,0 -5,2 -5,5 0,3 2,5 5,5l21 0c3,0 5,-2 5,-5zm0 24l0 0c0,-3 -2,-5 -5,-5l-21 0c-3,0 -5,2 -5,5 0,3 2,5 5,5l21 0c3,0 5,-2 5,-5zm0 24l0 0c0,-3 -2,-5 -5,-5l-21 0c-3,0 -5,2 -5,5 0,3 2,5 5,5l21 0c3,0 5,-2 5,-5zm78 -167l0 0c0,-3 -2,-6 -5,-6l-55 0c-3,0 -5,3 -5,6 0,2 2,5 5,5l55 0c3,0 5,-3 5,-5zm0 23l0 0c0,-2 -2,-5 -5,-5l-55 0c-3,0 -5,3 -5,5 0,3 2,6 5,6l55 0c3,0 5,-3 5,-6zm0 24l0 0c0,-3 -2,-5 -5,-5l-55 0c-3,0 -5,2 -5,5 0,3 2,5 5,5l55 0c3,0 5,-2 5,-5zm0 24l0 0c0,-3 -2,-5 -5,-5l-55 0c-3,0 -5,2 -5,5 0,3 2,5 5,5l55 0c3,0 5,-2 5,-5zm0 24l0 0c0,-3 -2,-5 -5,-5l-55 0c-3,0 -5,2 -5,5 0,3 2,5 5,5l55 0c3,0 5,-2 5,-5zm66 24l0 0c0,-3 -2,-5 -5,-5l-55 0c-3,0 -5,2 -5,5 0,3 2,5 5,5l55 0c3,0 5,-2 5,-5zm0 24l0 0c0,-3 -2,-5 -5,-5l-55 0c-3,0 -5,2 -5,5 0,3 2,5 5,5l55 0c3,0 5,-2 5,-5zm0 24l0 0c0,-3 -2,-5 -5,-5l-55 0c-3,0 -5,2 -5,5 0,3 2,5 5,5l55 0c3,0 5,-2 5,-5zm-42 -167l0 0c0,-4 -2,-6 -6,-6 -3,0 -6,2 -6,6 0,3 3,6 6,6 4,0 6,-3 6,-6zm18 0l0 0c0,-4 -2,-6 -6,-6 -3,0 -6,2 -6,6 0,3 3,6 6,6 4,0 6,-3 6,-6zm18 0l0 0c0,-4 -3,-6 -6,-6 -3,0 -6,2 -6,6 0,3 3,6 6,6 3,0 6,-3 6,-6zm18 0l0 0c0,-4 -3,-6 -6,-6 -3,0 -6,2 -6,6 0,3 3,6 6,6 3,0 6,-3 6,-6zm18 0l0 0c0,-4 -3,-6 -6,-6 -3,0 -6,2 -6,6 0,3 3,6 6,6 3,0 6,-3 6,-6zm18 0l0 0c0,-4 -3,-6 -6,-6 -3,0 -6,2 -6,6 0,3 3,6 6,6 3,0 6,-3 6,-6zm-90 47l0 0c0,-3 -2,-6 -6,-6 -3,0 -6,3 -6,6 0,4 3,6 6,6 4,0 6,-2 6,-6zm18 0l0 0c0,-3 -2,-6 -6,-6 -3,0 -6,3 -6,6 0,4 3,6 6,6 4,0 6,-2 6,-6zm18 0l0 0c0,-3 -3,-6 -6,-6 -3,0 -6,3 -6,6 0,4 3,6 6,6 3,0 6,-2 6,-6zm18 0l0 0c0,-3 -3,-6 -6,-6 -3,0 -6,3 -6,6 0,4 3,6 6,6 3,0 6,-2 6,-6zm18 0l0 0c0,-3 -3,-6 -6,-6 -3,0 -6,3 -6,6 0,4 3,6 6,6 3,0 6,-2 6,-6zm18 0l0 0c0,-3 -3,-6 -6,-6 -3,0 -6,3 -6,6 0,4 3,6 6,6 3,0 6,-2 6,-6zm-28 69l0 0c0,-3 -3,-6 -6,-6 -4,0 -6,3 -6,6 0,3 2,6 6,6 3,0 6,-3 6,-6zm17 0l0 0c0,-3 -2,-6 -5,-6 -4,0 -6,3 -6,6 0,3 2,6 6,6 3,0 5,-3 5,-6zm18 0l0 0c0,-3 -2,-6 -6,-6 -3,0 -6,3 -6,6 0,3 3,6 6,6 4,0 6,-3 6,-6zm18 0l0 0c0,-3 -2,-6 -6,-6 -3,0 -6,3 -6,6 0,3 3,6 6,6 4,0 6,-3 6,-6zm18 0l0 0c0,-3 -2,-6 -6,-6 -3,0 -6,3 -6,6 0,3 3,6 6,6 4,0 6,-3 6,-6zm18 0l0 0c0,-3 -2,-6 -6,-6 -3,0 -6,3 -6,6 0,3 3,6 6,6 4,0 6,-3 6,-6zm-89 49l0 0c0,-3 -3,-6 -6,-6 -4,0 -6,3 -6,6 0,4 2,6 6,6 3,0 6,-2 6,-6zm17 0l0 0c0,-3 -2,-6 -5,-6 -4,0 -6,3 -6,6 0,4 2,6 6,6 3,0 5,-2 5,-6zm18 0l0 0c0,-3 -2,-6 -6,-6 -3,0 -6,3 -6,6 0,4 3,6 6,6 4,0 6,-2 6,-6zm18 0l0 0c0,-3 -2,-6 -6,-6 -3,0 -6,3 -6,6 0,4 3,6 6,6 4,0 6,-2 6,-6zm18 0l0 0c0,-3 -2,-6 -6,-6 -3,0 -6,3 -6,6 0,4 3,6 6,6 4,0 6,-2 6,-6zm18 0l0 0c0,-3 -2,-6 -6,-6 -3,0 -6,3 -6,6 0,4 3,6 6,6 4,0 6,-2 6,-6z"/>
      </g>
     </g>
     <g>
      <path class="fil0" d="M3109 3509c0,0 -87,-204 -164,-204 -76,0 -72,171 -25,262 47,91 149,127 178,73l11 -131z"/>
      <path class="fil7" d="M3109 3509c0,0 -87,-204 -164,-204 -76,0 -72,171 -25,262 47,91 149,127 178,73l11 -131z"/>
      <g>
       <path class="fil2 str0" d="M3109 3509c0,0 -87,-204 -164,-204 -76,0 -72,171 -25,262 47,91 149,127 178,73l11 -131z"/>
       <path class="fil5 str0" d="M3109 3509c0,0 -87,-204 -164,-204 -76,0 -72,171 -25,262 47,91 149,127 178,73l11 -131z"/>
      </g>
      <path class="fil5 str1" d="M2920 3430c0,0 -11,-88 31,-73 42,16 91,155 91,155 0,0 -36,-38 -31,-2 4,35 35,37 35,37"/>
     </g>
    </g>
   </g>
   <polygon class="fil3 str0" points="6022,4140 4301,4140 4007,5322 5728,5322 "/>
   <polygon class="fil3 str0" points="5710,5322 3143,5322 3143,5406 5710,5406 "/>
   <polygon class="fil0 str0" points="5728,5322 4007,5322 4007,5406 5728,5406 "/>
   <polygon class="fil0 str0" points="6041,4140 4320,4140 4026,5322 5748,5322 "/>
   <g>
    <path class="fil3" d="M5269 4753c0,-134 -110,-243 -245,-243 -136,0 -246,109 -246,243 0,134 110,243 246,243 135,0 245,-109 245,-243z"/>
    <g>
     <path class="fil2" d="M4824 4791c-5,-3 -9,-7 -11,-13 -2,-5 -2,-11 0,-17 3,-7 7,-11 15,-14l104 -42c3,-2 7,0 11,4 3,5 5,10 6,15 0,5 -3,9 -7,12l-88 34 88 35c3,2 5,6 5,11 0,5 -1,10 -5,15 -3,4 -6,6 -10,4l-108 -44z"/>
     <path class="fil2" d="M4987 4849c-3,-3 -5,-6 -5,-10 0,-2 1,-7 3,-15l58 -167c4,-12 9,-18 16,-18 4,0 7,1 10,3 2,3 4,6 4,11 0,3 -1,7 -3,13l-61 177c-2,6 -6,9 -13,9 -3,0 -7,-1 -9,-3z"/>
     <path class="fil2" d="M5100 4831c-3,-5 -5,-10 -5,-15 0,-5 2,-9 5,-11l88 -35 -87 -34c-5,-3 -8,-7 -7,-12 0,-5 2,-10 6,-15 3,-4 7,-6 11,-4l104 42c5,2 9,5 12,10 3,4 4,8 4,13 0,4 -1,8 -4,12 -2,4 -5,7 -9,9l-108 44c-3,2 -7,0 -10,-4z"/>
    </g>
   </g>
   <polygon class="fil2 str0" points="6682,5470 1108,5470 1108,5387 6682,5387 "/>
  </g>
 </g>
</svg>
